solid OpenSCAD_Model
  facet normal -1 0 0
    outer loop
      vertex 0 158 0
      vertex 0 132 2
      vertex 0 158 6
    endloop
  endfacet
  facet normal -1 0 0
    outer loop
      vertex 0 158 0
      vertex 0 124 2
      vertex 0 132 2
    endloop
  endfacet
  facet normal -1 -0 0
    outer loop
      vertex 0 124 2
      vertex 0 0 0
      vertex 0 124 5
    endloop
  endfacet
  facet normal -1 0 0
    outer loop
      vertex 0 0 0
      vertex 0 124 2
      vertex 0 158 0
    endloop
  endfacet
  facet normal -1 0 0
    outer loop
      vertex 0 132 5
      vertex 0 158 6
      vertex 0 132 2
    endloop
  endfacet
  facet normal -1 0 0
    outer loop
      vertex 0 124 5
      vertex 0 158 6
      vertex 0 132 5
    endloop
  endfacet
  facet normal -1 0 0
    outer loop
      vertex 0 124 5
      vertex 0 0 6
      vertex 0 158 6
    endloop
  endfacet
  facet normal -1 0 0
    outer loop
      vertex 0 0 6
      vertex 0 124 5
      vertex 0 0 0
    endloop
  endfacet
  facet normal 0 0 1
    outer loop
      vertex 106.5 158 6
      vertex 105.25 156.25 6
      vertex 106.5 0 6
    endloop
  endfacet
  facet normal -0 0 1
    outer loop
      vertex 0 158 6
      vertex 105.25 156.25 6
      vertex 106.5 158 6
    endloop
  endfacet
  facet normal 0 0 1
    outer loop
      vertex 0 0 6
      vertex 1 156.25 6
      vertex 0 158 6
    endloop
  endfacet
  facet normal 0 0 1
    outer loop
      vertex 105.25 156.25 6
      vertex 0 158 6
      vertex 1 156.25 6
    endloop
  endfacet
  facet normal -0 0 1
    outer loop
      vertex 105.25 1 6
      vertex 106.5 0 6
      vertex 105.25 156.25 6
    endloop
  endfacet
  facet normal 0 0 1
    outer loop
      vertex 0 0 6
      vertex 105.25 1 6
      vertex 1 1 6
    endloop
  endfacet
  facet normal 0 0 1
    outer loop
      vertex 105.25 1 6
      vertex 0 0 6
      vertex 106.5 0 6
    endloop
  endfacet
  facet normal 0 0 1
    outer loop
      vertex 1 156.25 6
      vertex 0 0 6
      vertex 1 1 6
    endloop
  endfacet
  facet normal 1 -0 0
    outer loop
      vertex 106.5 0 6
      vertex 106.5 158 0
      vertex 106.5 158 6
    endloop
  endfacet
  facet normal 1 0 0
    outer loop
      vertex 106.5 158 0
      vertex 106.5 0 6
      vertex 106.5 0 0
    endloop
  endfacet
  facet normal 0 1 -0
    outer loop
      vertex 106.5 158 0
      vertex 0 158 6
      vertex 106.5 158 6
    endloop
  endfacet
  facet normal 0 1 0
    outer loop
      vertex 0 158 6
      vertex 106.5 158 0
      vertex 0 158 0
    endloop
  endfacet
  facet normal 0 0 -1
    outer loop
      vertex 77.382 80.1756 0
      vertex 29.118 80.1756 0
      vertex 77.382 129.324 0
    endloop
  endfacet
  facet normal 0 0 -1
    outer loop
      vertex 77.382 129.324 0
      vertex 29.4021 129.882 0
      vertex 29.5 130.5 0
    endloop
  endfacet
  facet normal 0 0 -1
    outer loop
      vertex 29.118 129.324 0
      vertex 77.382 129.324 0
      vertex 29.118 80.1756 0
    endloop
  endfacet
  facet normal 0 0 -1
    outer loop
      vertex 77.382 129.324 0
      vertex 29.118 129.324 0
      vertex 29.4021 129.882 0
    endloop
  endfacet
  facet normal 0 0 -1
    outer loop
      vertex 28.6756 80.618 0
      vertex 29.118 129.324 0
      vertex 29.118 80.1756 0
    endloop
  endfacet
  facet normal 0 0 -1
    outer loop
      vertex 28.6756 80.618 0
      vertex 28.6756 128.882 0
      vertex 29.118 129.324 0
    endloop
  endfacet
  facet normal 0 0 -1
    outer loop
      vertex 28.118 80.9021 0
      vertex 28.6756 128.882 0
      vertex 28.6756 80.618 0
    endloop
  endfacet
  facet normal 0 0 -1
    outer loop
      vertex 28.118 80.9021 0
      vertex 28.118 128.598 0
      vertex 28.6756 128.882 0
    endloop
  endfacet
  facet normal 0 0 -1
    outer loop
      vertex 27.5 81 0
      vertex 28.118 128.598 0
      vertex 28.118 80.9021 0
    endloop
  endfacet
  facet normal 0 0 -1
    outer loop
      vertex 27.5 81 0
      vertex 27.5 128.5 0
      vertex 28.118 128.598 0
    endloop
  endfacet
  facet normal 0 0 -1
    outer loop
      vertex 26.882 80.9021 0
      vertex 27.5 128.5 0
      vertex 27.5 81 0
    endloop
  endfacet
  facet normal 0 0 -1
    outer loop
      vertex 26.882 80.9021 0
      vertex 26.882 128.598 0
      vertex 27.5 128.5 0
    endloop
  endfacet
  facet normal 0 0 -1
    outer loop
      vertex 26.3244 80.618 0
      vertex 26.882 128.598 0
      vertex 26.882 80.9021 0
    endloop
  endfacet
  facet normal 0 0 -1
    outer loop
      vertex 26.3244 80.618 0
      vertex 26.3244 128.882 0
      vertex 26.882 128.598 0
    endloop
  endfacet
  facet normal 0 0 -1
    outer loop
      vertex 25.882 80.1756 0
      vertex 26.3244 128.882 0
      vertex 26.3244 80.618 0
    endloop
  endfacet
  facet normal 0 0 -1
    outer loop
      vertex 25.882 80.1756 0
      vertex 25.882 129.324 0
      vertex 26.3244 128.882 0
    endloop
  endfacet
  facet normal 0 0 -1
    outer loop
      vertex 25.5979 79.618 0
      vertex 25.882 129.324 0
      vertex 25.882 80.1756 0
    endloop
  endfacet
  facet normal 0 0 -1
    outer loop
      vertex 25.5979 79.618 0
      vertex 25.5979 129.882 0
      vertex 25.882 129.324 0
    endloop
  endfacet
  facet normal 0 0 -1
    outer loop
      vertex 0 158 0
      vertex 25.5979 79.618 0
      vertex 25.5 79 0
    endloop
  endfacet
  facet normal 0 0 -1
    outer loop
      vertex 25.5979 79.618 0
      vertex 0 158 0
      vertex 25.5979 129.882 0
    endloop
  endfacet
  facet normal 0 0 -1
    outer loop
      vertex 77.382 28.6756 0
      vertex 29.118 28.6756 0
      vertex 77.382 77.8244 0
    endloop
  endfacet
  facet normal 0 0 -1
    outer loop
      vertex 77.382 77.8244 0
      vertex 29.4021 78.382 0
      vertex 29.5 79 0
    endloop
  endfacet
  facet normal 0 0 -1
    outer loop
      vertex 29.118 77.8244 0
      vertex 77.382 77.8244 0
      vertex 29.118 28.6756 0
    endloop
  endfacet
  facet normal 0 0 -1
    outer loop
      vertex 77.382 77.8244 0
      vertex 29.118 77.8244 0
      vertex 29.4021 78.382 0
    endloop
  endfacet
  facet normal 0 0 -1
    outer loop
      vertex 28.6756 29.118 0
      vertex 29.118 77.8244 0
      vertex 29.118 28.6756 0
    endloop
  endfacet
  facet normal 0 0 -1
    outer loop
      vertex 28.6756 29.118 0
      vertex 28.6756 77.382 0
      vertex 29.118 77.8244 0
    endloop
  endfacet
  facet normal 0 0 -1
    outer loop
      vertex 28.118 29.4021 0
      vertex 28.6756 77.382 0
      vertex 28.6756 29.118 0
    endloop
  endfacet
  facet normal 0 0 -1
    outer loop
      vertex 28.118 29.4021 0
      vertex 28.118 77.0979 0
      vertex 28.6756 77.382 0
    endloop
  endfacet
  facet normal 0 0 -1
    outer loop
      vertex 27.5 29.5 0
      vertex 28.118 77.0979 0
      vertex 28.118 29.4021 0
    endloop
  endfacet
  facet normal 0 0 -1
    outer loop
      vertex 27.5 29.5 0
      vertex 27.5 77 0
      vertex 28.118 77.0979 0
    endloop
  endfacet
  facet normal 0 0 -1
    outer loop
      vertex 26.882 29.4021 0
      vertex 27.5 77 0
      vertex 27.5 29.5 0
    endloop
  endfacet
  facet normal 0 0 -1
    outer loop
      vertex 26.882 29.4021 0
      vertex 26.882 77.0979 0
      vertex 27.5 77 0
    endloop
  endfacet
  facet normal 0 0 -1
    outer loop
      vertex 26.3244 29.118 0
      vertex 26.882 77.0979 0
      vertex 26.882 29.4021 0
    endloop
  endfacet
  facet normal 0 0 -1
    outer loop
      vertex 26.3244 29.118 0
      vertex 26.3244 77.382 0
      vertex 26.882 77.0979 0
    endloop
  endfacet
  facet normal 0 0 -1
    outer loop
      vertex 25.882 28.6756 0
      vertex 26.3244 77.382 0
      vertex 26.3244 29.118 0
    endloop
  endfacet
  facet normal 0 0 -1
    outer loop
      vertex 25.882 28.6756 0
      vertex 25.882 77.8244 0
      vertex 26.3244 77.382 0
    endloop
  endfacet
  facet normal 0 0 -1
    outer loop
      vertex 25.5979 28.118 0
      vertex 25.882 77.8244 0
      vertex 25.882 28.6756 0
    endloop
  endfacet
  facet normal 0 0 -1
    outer loop
      vertex 25.5979 28.118 0
      vertex 25.5979 78.382 0
      vertex 25.882 77.8244 0
    endloop
  endfacet
  facet normal 0 0 -1
    outer loop
      vertex 0 0 0
      vertex 25.5979 28.118 0
      vertex 25.5 27.5 0
    endloop
  endfacet
  facet normal -0 0 -1
    outer loop
      vertex 25.5979 28.118 0
      vertex 0 0 0
      vertex 25.5979 78.382 0
    endloop
  endfacet
  facet normal 0 0 -1
    outer loop
      vertex 80.9021 129.882 0
      vertex 106.5 158 0
      vertex 80.9021 79.618 0
    endloop
  endfacet
  facet normal 0 0 -1
    outer loop
      vertex 106.5 158 0
      vertex 80.9021 129.882 0
      vertex 81 130.5 0
    endloop
  endfacet
  facet normal 0 0 -1
    outer loop
      vertex 80.618 80.1756 0
      vertex 80.9021 129.882 0
      vertex 80.9021 79.618 0
    endloop
  endfacet
  facet normal 0 0 -1
    outer loop
      vertex 80.618 80.1756 0
      vertex 80.618 129.324 0
      vertex 80.9021 129.882 0
    endloop
  endfacet
  facet normal 0 0 -1
    outer loop
      vertex 80.1756 80.618 0
      vertex 80.618 129.324 0
      vertex 80.618 80.1756 0
    endloop
  endfacet
  facet normal 0 0 -1
    outer loop
      vertex 80.1756 80.618 0
      vertex 80.1756 128.882 0
      vertex 80.618 129.324 0
    endloop
  endfacet
  facet normal 0 0 -1
    outer loop
      vertex 79.618 80.9021 0
      vertex 80.1756 128.882 0
      vertex 80.1756 80.618 0
    endloop
  endfacet
  facet normal 0 0 -1
    outer loop
      vertex 79.618 80.9021 0
      vertex 79.618 128.598 0
      vertex 80.1756 128.882 0
    endloop
  endfacet
  facet normal 0 0 -1
    outer loop
      vertex 79 81 0
      vertex 79.618 128.598 0
      vertex 79.618 80.9021 0
    endloop
  endfacet
  facet normal 0 0 -1
    outer loop
      vertex 79 81 0
      vertex 79 128.5 0
      vertex 79.618 128.598 0
    endloop
  endfacet
  facet normal 0 0 -1
    outer loop
      vertex 78.382 80.9021 0
      vertex 79 128.5 0
      vertex 79 81 0
    endloop
  endfacet
  facet normal 0 0 -1
    outer loop
      vertex 78.382 80.9021 0
      vertex 78.382 128.598 0
      vertex 79 128.5 0
    endloop
  endfacet
  facet normal 0 0 -1
    outer loop
      vertex 77.8244 80.618 0
      vertex 78.382 128.598 0
      vertex 78.382 80.9021 0
    endloop
  endfacet
  facet normal 0 0 -1
    outer loop
      vertex 77.8244 80.618 0
      vertex 77.8244 128.882 0
      vertex 78.382 128.598 0
    endloop
  endfacet
  facet normal 0 0 -1
    outer loop
      vertex 77.382 80.1756 0
      vertex 77.8244 128.882 0
      vertex 77.8244 80.618 0
    endloop
  endfacet
  facet normal 0 0 -1
    outer loop
      vertex 77.382 80.1756 0
      vertex 77.382 129.324 0
      vertex 77.8244 128.882 0
    endloop
  endfacet
  facet normal 0 0 -1
    outer loop
      vertex 29.4021 79.618 0
      vertex 77.0979 79.618 0
      vertex 29.5 79 0
    endloop
  endfacet
  facet normal 0 0 -1
    outer loop
      vertex 77.0979 79.618 0
      vertex 29.4021 79.618 0
      vertex 77.382 80.1756 0
    endloop
  endfacet
  facet normal 0 0 -1
    outer loop
      vertex 29.5 79 0
      vertex 77.0979 79.618 0
      vertex 77 79 0
    endloop
  endfacet
  facet normal 0 0 -1
    outer loop
      vertex 29.118 80.1756 0
      vertex 77.382 80.1756 0
      vertex 29.4021 79.618 0
    endloop
  endfacet
  facet normal 0 0 -1
    outer loop
      vertex 80.9021 78.382 0
      vertex 106.5 0 0
      vertex 80.9021 28.118 0
    endloop
  endfacet
  facet normal 0 0 -1
    outer loop
      vertex 106.5 0 0
      vertex 80.9021 78.382 0
      vertex 81 79 0
    endloop
  endfacet
  facet normal 0 0 -1
    outer loop
      vertex 80.618 28.6756 0
      vertex 80.9021 78.382 0
      vertex 80.9021 28.118 0
    endloop
  endfacet
  facet normal 0 0 -1
    outer loop
      vertex 80.618 28.6756 0
      vertex 80.618 77.8244 0
      vertex 80.9021 78.382 0
    endloop
  endfacet
  facet normal 0 0 -1
    outer loop
      vertex 80.1756 29.118 0
      vertex 80.618 77.8244 0
      vertex 80.618 28.6756 0
    endloop
  endfacet
  facet normal 0 0 -1
    outer loop
      vertex 80.1756 29.118 0
      vertex 80.1756 77.382 0
      vertex 80.618 77.8244 0
    endloop
  endfacet
  facet normal 0 0 -1
    outer loop
      vertex 79.618 29.4021 0
      vertex 80.1756 77.382 0
      vertex 80.1756 29.118 0
    endloop
  endfacet
  facet normal 0 0 -1
    outer loop
      vertex 79.618 29.4021 0
      vertex 79.618 77.0979 0
      vertex 80.1756 77.382 0
    endloop
  endfacet
  facet normal 0 0 -1
    outer loop
      vertex 79 29.5 0
      vertex 79.618 77.0979 0
      vertex 79.618 29.4021 0
    endloop
  endfacet
  facet normal 0 0 -1
    outer loop
      vertex 79 29.5 0
      vertex 79 77 0
      vertex 79.618 77.0979 0
    endloop
  endfacet
  facet normal 0 0 -1
    outer loop
      vertex 78.382 29.4021 0
      vertex 79 77 0
      vertex 79 29.5 0
    endloop
  endfacet
  facet normal 0 0 -1
    outer loop
      vertex 78.382 29.4021 0
      vertex 78.382 77.0979 0
      vertex 79 77 0
    endloop
  endfacet
  facet normal 0 0 -1
    outer loop
      vertex 77.8244 29.118 0
      vertex 78.382 77.0979 0
      vertex 78.382 29.4021 0
    endloop
  endfacet
  facet normal 0 0 -1
    outer loop
      vertex 77.8244 29.118 0
      vertex 77.8244 77.382 0
      vertex 78.382 77.0979 0
    endloop
  endfacet
  facet normal 0 0 -1
    outer loop
      vertex 77.382 28.6756 0
      vertex 77.8244 77.382 0
      vertex 77.8244 29.118 0
    endloop
  endfacet
  facet normal 0 0 -1
    outer loop
      vertex 77.382 28.6756 0
      vertex 77.382 77.8244 0
      vertex 77.8244 77.382 0
    endloop
  endfacet
  facet normal 0 0 -1
    outer loop
      vertex 29.4021 28.118 0
      vertex 77.0979 28.118 0
      vertex 29.5 27.5 0
    endloop
  endfacet
  facet normal 0 0 -1
    outer loop
      vertex 77.0979 28.118 0
      vertex 29.4021 28.118 0
      vertex 77.382 28.6756 0
    endloop
  endfacet
  facet normal 0 0 -1
    outer loop
      vertex 29.5 27.5 0
      vertex 77.0979 28.118 0
      vertex 77 27.5 0
    endloop
  endfacet
  facet normal 0 0 -1
    outer loop
      vertex 29.118 28.6756 0
      vertex 77.382 28.6756 0
      vertex 29.4021 28.118 0
    endloop
  endfacet
  facet normal 0 0 -1
    outer loop
      vertex 80.9021 28.118 0
      vertex 106.5 0 0
      vertex 81 27.5 0
    endloop
  endfacet
  facet normal 0 0 -1
    outer loop
      vertex 106.5 0 0
      vertex 80.9021 26.882 0
      vertex 81 27.5 0
    endloop
  endfacet
  facet normal 0 0 -1
    outer loop
      vertex 106.5 0 0
      vertex 80.618 26.3244 0
      vertex 80.9021 26.882 0
    endloop
  endfacet
  facet normal 0 0 -1
    outer loop
      vertex 106.5 0 0
      vertex 80.1756 25.882 0
      vertex 80.618 26.3244 0
    endloop
  endfacet
  facet normal 0 0 -1
    outer loop
      vertex 106.5 0 0
      vertex 79.618 25.5979 0
      vertex 80.1756 25.882 0
    endloop
  endfacet
  facet normal 0 0 -1
    outer loop
      vertex 106.5 0 0
      vertex 79 25.5 0
      vertex 79.618 25.5979 0
    endloop
  endfacet
  facet normal 0 0 -1
    outer loop
      vertex 106.5 0 0
      vertex 78.382 25.5979 0
      vertex 79 25.5 0
    endloop
  endfacet
  facet normal 0 0 -1
    outer loop
      vertex 28.118 25.5979 0
      vertex 78.382 25.5979 0
      vertex 106.5 0 0
    endloop
  endfacet
  facet normal 0 0 -1
    outer loop
      vertex 77.0979 78.382 0
      vertex 29.5 79 0
      vertex 77 79 0
    endloop
  endfacet
  facet normal 0 0 -1
    outer loop
      vertex 77.382 77.8244 0
      vertex 29.5 79 0
      vertex 77.0979 78.382 0
    endloop
  endfacet
  facet normal 0 0 -1
    outer loop
      vertex 77.0979 26.882 0
      vertex 29.5 27.5 0
      vertex 77 27.5 0
    endloop
  endfacet
  facet normal 0 0 -1
    outer loop
      vertex 29.4021 26.882 0
      vertex 77.0979 26.882 0
      vertex 77.382 26.3244 0
    endloop
  endfacet
  facet normal 0 0 -1
    outer loop
      vertex 29.118 26.3244 0
      vertex 77.382 26.3244 0
      vertex 77.8244 25.882 0
    endloop
  endfacet
  facet normal 0 0 -1
    outer loop
      vertex 78.382 25.5979 0
      vertex 28.118 25.5979 0
      vertex 77.8244 25.882 0
    endloop
  endfacet
  facet normal 0 0 -1
    outer loop
      vertex 77.0979 26.882 0
      vertex 29.4021 26.882 0
      vertex 29.5 27.5 0
    endloop
  endfacet
  facet normal 0 0 -1
    outer loop
      vertex 77.382 26.3244 0
      vertex 29.118 26.3244 0
      vertex 29.4021 26.882 0
    endloop
  endfacet
  facet normal 0 0 -1
    outer loop
      vertex 77.8244 25.882 0
      vertex 28.6756 25.882 0
      vertex 29.118 26.3244 0
    endloop
  endfacet
  facet normal -0 0 -1
    outer loop
      vertex 77.8244 25.882 0
      vertex 28.118 25.5979 0
      vertex 28.6756 25.882 0
    endloop
  endfacet
  facet normal 0 0 -1
    outer loop
      vertex 0 0 0
      vertex 28.118 25.5979 0
      vertex 106.5 0 0
    endloop
  endfacet
  facet normal 0 0 -1
    outer loop
      vertex 28.118 25.5979 0
      vertex 0 0 0
      vertex 27.5 25.5 0
    endloop
  endfacet
  facet normal -0 0 -1
    outer loop
      vertex 25.5979 78.382 0
      vertex 0 0 0
      vertex 25.5 79 0
    endloop
  endfacet
  facet normal 0 0 -1
    outer loop
      vertex 0 158 0
      vertex 25.5 79 0
      vertex 0 0 0
    endloop
  endfacet
  facet normal -0 0 -1
    outer loop
      vertex 25.5979 26.882 0
      vertex 0 0 0
      vertex 25.5 27.5 0
    endloop
  endfacet
  facet normal -0 0 -1
    outer loop
      vertex 25.882 26.3244 0
      vertex 0 0 0
      vertex 25.5979 26.882 0
    endloop
  endfacet
  facet normal -0 0 -1
    outer loop
      vertex 26.3244 25.882 0
      vertex 0 0 0
      vertex 25.882 26.3244 0
    endloop
  endfacet
  facet normal -0 0 -1
    outer loop
      vertex 26.882 25.5979 0
      vertex 0 0 0
      vertex 26.3244 25.882 0
    endloop
  endfacet
  facet normal -0 0 -1
    outer loop
      vertex 27.5 25.5 0
      vertex 0 0 0
      vertex 26.882 25.5979 0
    endloop
  endfacet
  facet normal 0 0 -1
    outer loop
      vertex 106.5 0 0
      vertex 81 79 0
      vertex 106.5 158 0
    endloop
  endfacet
  facet normal 0 0 -1
    outer loop
      vertex 80.9021 79.618 0
      vertex 106.5 158 0
      vertex 81 79 0
    endloop
  endfacet
  facet normal 0 0 -1
    outer loop
      vertex 80.9021 131.118 0
      vertex 106.5 158 0
      vertex 81 130.5 0
    endloop
  endfacet
  facet normal 0 0 -1
    outer loop
      vertex 80.618 131.676 0
      vertex 106.5 158 0
      vertex 80.9021 131.118 0
    endloop
  endfacet
  facet normal 0 0 -1
    outer loop
      vertex 80.1756 132.118 0
      vertex 106.5 158 0
      vertex 80.618 131.676 0
    endloop
  endfacet
  facet normal 0 0 -1
    outer loop
      vertex 79.618 132.402 0
      vertex 106.5 158 0
      vertex 80.1756 132.118 0
    endloop
  endfacet
  facet normal 0 0 -1
    outer loop
      vertex 79 132.5 0
      vertex 106.5 158 0
      vertex 79.618 132.402 0
    endloop
  endfacet
  facet normal 0 0 -1
    outer loop
      vertex 78.382 132.402 0
      vertex 106.5 158 0
      vertex 79 132.5 0
    endloop
  endfacet
  facet normal 0 0 -1
    outer loop
      vertex 28.118 132.402 0
      vertex 78.382 132.402 0
      vertex 77.8244 132.118 0
    endloop
  endfacet
  facet normal 0 0 -1
    outer loop
      vertex 77.382 129.324 0
      vertex 29.5 130.5 0
      vertex 77.0979 129.882 0
    endloop
  endfacet
  facet normal 0 0 -1
    outer loop
      vertex 77.0979 129.882 0
      vertex 29.5 130.5 0
      vertex 77 130.5 0
    endloop
  endfacet
  facet normal 0 0 -1
    outer loop
      vertex 77 130.5 0
      vertex 29.5 130.5 0
      vertex 77.0979 131.118 0
    endloop
  endfacet
  facet normal 0 0 -1
    outer loop
      vertex 29.4021 131.118 0
      vertex 77.0979 131.118 0
      vertex 29.5 130.5 0
    endloop
  endfacet
  facet normal 0 0 -1
    outer loop
      vertex 77.0979 131.118 0
      vertex 29.4021 131.118 0
      vertex 77.382 131.676 0
    endloop
  endfacet
  facet normal 0 0 -1
    outer loop
      vertex 29.118 131.676 0
      vertex 77.382 131.676 0
      vertex 29.4021 131.118 0
    endloop
  endfacet
  facet normal 0 0 -1
    outer loop
      vertex 77.382 131.676 0
      vertex 29.118 131.676 0
      vertex 77.8244 132.118 0
    endloop
  endfacet
  facet normal 0 0 -1
    outer loop
      vertex 28.6756 132.118 0
      vertex 77.8244 132.118 0
      vertex 29.118 131.676 0
    endloop
  endfacet
  facet normal 0 0 -1
    outer loop
      vertex 28.118 132.402 0
      vertex 77.8244 132.118 0
      vertex 28.6756 132.118 0
    endloop
  endfacet
  facet normal 0 0 -1
    outer loop
      vertex 78.382 132.402 0
      vertex 28.118 132.402 0
      vertex 106.5 158 0
    endloop
  endfacet
  facet normal 0 0 -1
    outer loop
      vertex 0 158 0
      vertex 28.118 132.402 0
      vertex 27.5 132.5 0
    endloop
  endfacet
  facet normal 0 0 -1
    outer loop
      vertex 0 158 0
      vertex 27.5 132.5 0
      vertex 26.882 132.402 0
    endloop
  endfacet
  facet normal 0 0 -1
    outer loop
      vertex 25.5979 129.882 0
      vertex 0 158 0
      vertex 25.5 130.5 0
    endloop
  endfacet
  facet normal 0 0 -1
    outer loop
      vertex 28.118 132.402 0
      vertex 0 158 0
      vertex 106.5 158 0
    endloop
  endfacet
  facet normal 0 0 -1
    outer loop
      vertex 26.3244 132.118 0
      vertex 0 158 0
      vertex 26.882 132.402 0
    endloop
  endfacet
  facet normal 0 0 -1
    outer loop
      vertex 25.882 131.676 0
      vertex 0 158 0
      vertex 26.3244 132.118 0
    endloop
  endfacet
  facet normal 0 0 -1
    outer loop
      vertex 25.5979 131.118 0
      vertex 0 158 0
      vertex 25.882 131.676 0
    endloop
  endfacet
  facet normal 0 0 -1
    outer loop
      vertex 25.5 130.5 0
      vertex 0 158 0
      vertex 25.5979 131.118 0
    endloop
  endfacet
  facet normal 0 -1 0
    outer loop
      vertex 0 0 0
      vertex 106.5 0 6
      vertex 0 0 6
    endloop
  endfacet
  facet normal 0 -1 -0
    outer loop
      vertex 106.5 0 6
      vertex 0 0 0
      vertex 106.5 0 0
    endloop
  endfacet
  facet normal 1 0 0
    outer loop
      vertex 1 156.25 6
      vertex 1 132 5
      vertex 1 156.25 2
    endloop
  endfacet
  facet normal 1 0 0
    outer loop
      vertex 1 156.25 6
      vertex 1 124 5
      vertex 1 132 5
    endloop
  endfacet
  facet normal 1 -0 0
    outer loop
      vertex 1 1 6
      vertex 1 124 5
      vertex 1 156.25 6
    endloop
  endfacet
  facet normal 1 0 0
    outer loop
      vertex 1 1 6
      vertex 1 124 2
      vertex 1 124 5
    endloop
  endfacet
  facet normal 1 0 0
    outer loop
      vertex 1 124 2
      vertex 1 1 6
      vertex 1 1 2
    endloop
  endfacet
  facet normal 1 0 0
    outer loop
      vertex 1 156.25 2
      vertex 1 132 5
      vertex 1 132 2
    endloop
  endfacet
  facet normal -1 0 0
    outer loop
      vertex 105.25 1 2
      vertex 105.25 156.25 6
      vertex 105.25 156.25 2
    endloop
  endfacet
  facet normal -1 -0 0
    outer loop
      vertex 105.25 156.25 6
      vertex 105.25 1 2
      vertex 105.25 1 6
    endloop
  endfacet
  facet normal 0 -1 0
    outer loop
      vertex 1 156.25 2
      vertex 105.25 156.25 6
      vertex 1 156.25 6
    endloop
  endfacet
  facet normal 0 -1 -0
    outer loop
      vertex 105.25 156.25 6
      vertex 1 156.25 2
      vertex 105.25 156.25 2
    endloop
  endfacet
  facet normal -0 0 1
    outer loop
      vertex 0 132 2
      vertex 1 124 2
      vertex 1 132 2
    endloop
  endfacet
  facet normal 0 0 1
    outer loop
      vertex 1 124 2
      vertex 0 132 2
      vertex 0 124 2
    endloop
  endfacet
  facet normal 0 0 1
    outer loop
      vertex 77.382 77.8244 2
      vertex 29.118 77.8244 2
      vertex 77.382 28.6756 2
    endloop
  endfacet
  facet normal 0 0 1
    outer loop
      vertex 77.382 28.6756 2
      vertex 29.4021 28.118 2
      vertex 29.5 27.5 2
    endloop
  endfacet
  facet normal 0 0 1
    outer loop
      vertex 29.118 28.6756 2
      vertex 77.382 28.6756 2
      vertex 29.118 77.8244 2
    endloop
  endfacet
  facet normal 0 0 1
    outer loop
      vertex 77.382 28.6756 2
      vertex 29.118 28.6756 2
      vertex 29.4021 28.118 2
    endloop
  endfacet
  facet normal -0 0 1
    outer loop
      vertex 28.6756 77.382 2
      vertex 29.118 28.6756 2
      vertex 29.118 77.8244 2
    endloop
  endfacet
  facet normal 0 0 1
    outer loop
      vertex 28.6756 77.382 2
      vertex 28.6756 29.118 2
      vertex 29.118 28.6756 2
    endloop
  endfacet
  facet normal -0 0 1
    outer loop
      vertex 28.118 77.0979 2
      vertex 28.6756 29.118 2
      vertex 28.6756 77.382 2
    endloop
  endfacet
  facet normal 0 0 1
    outer loop
      vertex 28.118 77.0979 2
      vertex 28.118 29.4021 2
      vertex 28.6756 29.118 2
    endloop
  endfacet
  facet normal -0 0 1
    outer loop
      vertex 27.5 77 2
      vertex 28.118 29.4021 2
      vertex 28.118 77.0979 2
    endloop
  endfacet
  facet normal 0 0 1
    outer loop
      vertex 27.5 77 2
      vertex 27.5 29.5 2
      vertex 28.118 29.4021 2
    endloop
  endfacet
  facet normal 0 0 1
    outer loop
      vertex 26.882 77.0979 2
      vertex 27.5 29.5 2
      vertex 27.5 77 2
    endloop
  endfacet
  facet normal 0 0 1
    outer loop
      vertex 26.882 77.0979 2
      vertex 26.882 29.4021 2
      vertex 27.5 29.5 2
    endloop
  endfacet
  facet normal 0 0 1
    outer loop
      vertex 26.3244 77.382 2
      vertex 26.882 29.4021 2
      vertex 26.882 77.0979 2
    endloop
  endfacet
  facet normal 0 0 1
    outer loop
      vertex 26.3244 77.382 2
      vertex 26.3244 29.118 2
      vertex 26.882 29.4021 2
    endloop
  endfacet
  facet normal 0 0 1
    outer loop
      vertex 25.882 77.8244 2
      vertex 26.3244 29.118 2
      vertex 26.3244 77.382 2
    endloop
  endfacet
  facet normal 0 0 1
    outer loop
      vertex 25.882 77.8244 2
      vertex 25.882 28.6756 2
      vertex 26.3244 29.118 2
    endloop
  endfacet
  facet normal 0 0 1
    outer loop
      vertex 25.5979 78.382 2
      vertex 25.882 28.6756 2
      vertex 25.882 77.8244 2
    endloop
  endfacet
  facet normal 0 0 1
    outer loop
      vertex 25.5979 78.382 2
      vertex 25.5979 28.118 2
      vertex 25.882 28.6756 2
    endloop
  endfacet
  facet normal 0 0 1
    outer loop
      vertex 1 124 2
      vertex 25.5979 78.382 2
      vertex 25.5 79 2
    endloop
  endfacet
  facet normal 0 0 1
    outer loop
      vertex 25.5979 78.382 2
      vertex 1 1 2
      vertex 25.5979 28.118 2
    endloop
  endfacet
  facet normal 0 0 1
    outer loop
      vertex 77.382 129.324 2
      vertex 29.118 129.324 2
      vertex 77.382 80.1756 2
    endloop
  endfacet
  facet normal 0 0 1
    outer loop
      vertex 77.382 80.1756 2
      vertex 29.4021 79.618 2
      vertex 29.5 79 2
    endloop
  endfacet
  facet normal 0 0 1
    outer loop
      vertex 29.118 80.1756 2
      vertex 77.382 80.1756 2
      vertex 29.118 129.324 2
    endloop
  endfacet
  facet normal 0 0 1
    outer loop
      vertex 77.382 80.1756 2
      vertex 29.118 80.1756 2
      vertex 29.4021 79.618 2
    endloop
  endfacet
  facet normal -0 0 1
    outer loop
      vertex 28.6756 128.882 2
      vertex 29.118 80.1756 2
      vertex 29.118 129.324 2
    endloop
  endfacet
  facet normal 0 0 1
    outer loop
      vertex 28.6756 128.882 2
      vertex 28.6756 80.618 2
      vertex 29.118 80.1756 2
    endloop
  endfacet
  facet normal -0 0 1
    outer loop
      vertex 28.118 128.598 2
      vertex 28.6756 80.618 2
      vertex 28.6756 128.882 2
    endloop
  endfacet
  facet normal 0 0 1
    outer loop
      vertex 28.118 128.598 2
      vertex 28.118 80.9021 2
      vertex 28.6756 80.618 2
    endloop
  endfacet
  facet normal -0 0 1
    outer loop
      vertex 27.5 128.5 2
      vertex 28.118 80.9021 2
      vertex 28.118 128.598 2
    endloop
  endfacet
  facet normal 0 0 1
    outer loop
      vertex 27.5 128.5 2
      vertex 27.5 81 2
      vertex 28.118 80.9021 2
    endloop
  endfacet
  facet normal 0 0 1
    outer loop
      vertex 26.882 128.598 2
      vertex 27.5 81 2
      vertex 27.5 128.5 2
    endloop
  endfacet
  facet normal 0 0 1
    outer loop
      vertex 26.882 128.598 2
      vertex 26.882 80.9021 2
      vertex 27.5 81 2
    endloop
  endfacet
  facet normal 0 0 1
    outer loop
      vertex 1 124 2
      vertex 26.882 128.598 2
      vertex 26.3244 128.882 2
    endloop
  endfacet
  facet normal 0 0 1
    outer loop
      vertex 26.882 128.598 2
      vertex 1 124 2
      vertex 26.882 80.9021 2
    endloop
  endfacet
  facet normal 0 0 1
    outer loop
      vertex 1 124 2
      vertex 26.3244 128.882 2
      vertex 25.882 129.324 2
    endloop
  endfacet
  facet normal 0 0 1
    outer loop
      vertex 26.882 80.9021 2
      vertex 1 124 2
      vertex 26.3244 80.618 2
    endloop
  endfacet
  facet normal 0 0 1
    outer loop
      vertex 1 124 2
      vertex 25.882 129.324 2
      vertex 25.5979 129.882 2
    endloop
  endfacet
  facet normal 0 0 1
    outer loop
      vertex 26.3244 80.618 2
      vertex 1 124 2
      vertex 25.882 80.1756 2
    endloop
  endfacet
  facet normal 0 0 1
    outer loop
      vertex 1 132 2
      vertex 25.5979 129.882 2
      vertex 25.5 130.5 2
    endloop
  endfacet
  facet normal 0 0 1
    outer loop
      vertex 25.882 80.1756 2
      vertex 1 124 2
      vertex 25.5979 79.618 2
    endloop
  endfacet
  facet normal -0 0 1
    outer loop
      vertex 80.9021 28.118 2
      vertex 105.25 1 2
      vertex 80.9021 78.382 2
    endloop
  endfacet
  facet normal 0 0 1
    outer loop
      vertex 105.25 1 2
      vertex 80.9021 28.118 2
      vertex 81 27.5 2
    endloop
  endfacet
  facet normal -0 0 1
    outer loop
      vertex 80.618 77.8244 2
      vertex 80.9021 28.118 2
      vertex 80.9021 78.382 2
    endloop
  endfacet
  facet normal 0 0 1
    outer loop
      vertex 80.618 77.8244 2
      vertex 80.618 28.6756 2
      vertex 80.9021 28.118 2
    endloop
  endfacet
  facet normal -0 0 1
    outer loop
      vertex 80.1756 77.382 2
      vertex 80.618 28.6756 2
      vertex 80.618 77.8244 2
    endloop
  endfacet
  facet normal 0 0 1
    outer loop
      vertex 80.1756 77.382 2
      vertex 80.1756 29.118 2
      vertex 80.618 28.6756 2
    endloop
  endfacet
  facet normal -0 0 1
    outer loop
      vertex 79.618 77.0979 2
      vertex 80.1756 29.118 2
      vertex 80.1756 77.382 2
    endloop
  endfacet
  facet normal 0 0 1
    outer loop
      vertex 79.618 77.0979 2
      vertex 79.618 29.4021 2
      vertex 80.1756 29.118 2
    endloop
  endfacet
  facet normal -0 0 1
    outer loop
      vertex 79 77 2
      vertex 79.618 29.4021 2
      vertex 79.618 77.0979 2
    endloop
  endfacet
  facet normal 0 0 1
    outer loop
      vertex 79 77 2
      vertex 79 29.5 2
      vertex 79.618 29.4021 2
    endloop
  endfacet
  facet normal 0 0 1
    outer loop
      vertex 78.382 77.0979 2
      vertex 79 29.5 2
      vertex 79 77 2
    endloop
  endfacet
  facet normal 0 0 1
    outer loop
      vertex 78.382 77.0979 2
      vertex 78.382 29.4021 2
      vertex 79 29.5 2
    endloop
  endfacet
  facet normal 0 0 1
    outer loop
      vertex 77.8244 77.382 2
      vertex 78.382 29.4021 2
      vertex 78.382 77.0979 2
    endloop
  endfacet
  facet normal 0 0 1
    outer loop
      vertex 77.8244 77.382 2
      vertex 77.8244 29.118 2
      vertex 78.382 29.4021 2
    endloop
  endfacet
  facet normal 0 0 1
    outer loop
      vertex 77.382 77.8244 2
      vertex 77.8244 29.118 2
      vertex 77.8244 77.382 2
    endloop
  endfacet
  facet normal 0 0 1
    outer loop
      vertex 77.382 77.8244 2
      vertex 77.382 28.6756 2
      vertex 77.8244 29.118 2
    endloop
  endfacet
  facet normal 0 0 1
    outer loop
      vertex 29.4021 78.382 2
      vertex 77.0979 78.382 2
      vertex 29.5 79 2
    endloop
  endfacet
  facet normal 0 0 1
    outer loop
      vertex 77.0979 78.382 2
      vertex 29.4021 78.382 2
      vertex 77.382 77.8244 2
    endloop
  endfacet
  facet normal -0 0 1
    outer loop
      vertex 29.5 79 2
      vertex 77.0979 78.382 2
      vertex 77 79 2
    endloop
  endfacet
  facet normal 0 0 1
    outer loop
      vertex 29.118 77.8244 2
      vertex 77.382 77.8244 2
      vertex 29.4021 78.382 2
    endloop
  endfacet
  facet normal 0 0 1
    outer loop
      vertex 80.9021 79.618 2
      vertex 105.25 156.25 2
      vertex 80.9021 129.882 2
    endloop
  endfacet
  facet normal 0 0 1
    outer loop
      vertex 105.25 156.25 2
      vertex 80.9021 79.618 2
      vertex 81 79 2
    endloop
  endfacet
  facet normal -0 0 1
    outer loop
      vertex 80.618 129.324 2
      vertex 80.9021 79.618 2
      vertex 80.9021 129.882 2
    endloop
  endfacet
  facet normal 0 0 1
    outer loop
      vertex 80.618 129.324 2
      vertex 80.618 80.1756 2
      vertex 80.9021 79.618 2
    endloop
  endfacet
  facet normal -0 0 1
    outer loop
      vertex 80.1756 128.882 2
      vertex 80.618 80.1756 2
      vertex 80.618 129.324 2
    endloop
  endfacet
  facet normal 0 0 1
    outer loop
      vertex 80.1756 128.882 2
      vertex 80.1756 80.618 2
      vertex 80.618 80.1756 2
    endloop
  endfacet
  facet normal -0 0 1
    outer loop
      vertex 79.618 128.598 2
      vertex 80.1756 80.618 2
      vertex 80.1756 128.882 2
    endloop
  endfacet
  facet normal 0 0 1
    outer loop
      vertex 79.618 128.598 2
      vertex 79.618 80.9021 2
      vertex 80.1756 80.618 2
    endloop
  endfacet
  facet normal -0 0 1
    outer loop
      vertex 79 128.5 2
      vertex 79.618 80.9021 2
      vertex 79.618 128.598 2
    endloop
  endfacet
  facet normal 0 0 1
    outer loop
      vertex 79 128.5 2
      vertex 79 81 2
      vertex 79.618 80.9021 2
    endloop
  endfacet
  facet normal 0 0 1
    outer loop
      vertex 78.382 128.598 2
      vertex 79 81 2
      vertex 79 128.5 2
    endloop
  endfacet
  facet normal 0 0 1
    outer loop
      vertex 78.382 128.598 2
      vertex 78.382 80.9021 2
      vertex 79 81 2
    endloop
  endfacet
  facet normal 0 0 1
    outer loop
      vertex 77.8244 128.882 2
      vertex 78.382 80.9021 2
      vertex 78.382 128.598 2
    endloop
  endfacet
  facet normal 0 0 1
    outer loop
      vertex 77.8244 128.882 2
      vertex 77.8244 80.618 2
      vertex 78.382 80.9021 2
    endloop
  endfacet
  facet normal 0 0 1
    outer loop
      vertex 77.382 129.324 2
      vertex 77.8244 80.618 2
      vertex 77.8244 128.882 2
    endloop
  endfacet
  facet normal 0 0 1
    outer loop
      vertex 77.382 129.324 2
      vertex 77.382 80.1756 2
      vertex 77.8244 80.618 2
    endloop
  endfacet
  facet normal 0 0 1
    outer loop
      vertex 29.4021 129.882 2
      vertex 77.0979 129.882 2
      vertex 29.5 130.5 2
    endloop
  endfacet
  facet normal 0 0 1
    outer loop
      vertex 77.0979 129.882 2
      vertex 29.4021 129.882 2
      vertex 77.382 129.324 2
    endloop
  endfacet
  facet normal -0 0 1
    outer loop
      vertex 29.5 130.5 2
      vertex 77.0979 129.882 2
      vertex 77 130.5 2
    endloop
  endfacet
  facet normal 0 0 1
    outer loop
      vertex 29.118 129.324 2
      vertex 77.382 129.324 2
      vertex 29.4021 129.882 2
    endloop
  endfacet
  facet normal 0 0 1
    outer loop
      vertex 80.9021 129.882 2
      vertex 105.25 156.25 2
      vertex 81 130.5 2
    endloop
  endfacet
  facet normal 0 0 1
    outer loop
      vertex 105.25 156.25 2
      vertex 80.9021 131.118 2
      vertex 81 130.5 2
    endloop
  endfacet
  facet normal 0 0 1
    outer loop
      vertex 105.25 156.25 2
      vertex 80.618 131.676 2
      vertex 80.9021 131.118 2
    endloop
  endfacet
  facet normal 0 0 1
    outer loop
      vertex 105.25 156.25 2
      vertex 80.1756 132.118 2
      vertex 80.618 131.676 2
    endloop
  endfacet
  facet normal 0 0 1
    outer loop
      vertex 105.25 156.25 2
      vertex 79.618 132.402 2
      vertex 80.1756 132.118 2
    endloop
  endfacet
  facet normal 0 0 1
    outer loop
      vertex 105.25 156.25 2
      vertex 79 132.5 2
      vertex 79.618 132.402 2
    endloop
  endfacet
  facet normal 0 0 1
    outer loop
      vertex 105.25 156.25 2
      vertex 78.382 132.402 2
      vertex 79 132.5 2
    endloop
  endfacet
  facet normal 0 0 1
    outer loop
      vertex 28.118 132.402 2
      vertex 78.382 132.402 2
      vertex 105.25 156.25 2
    endloop
  endfacet
  facet normal 0 0 1
    outer loop
      vertex 77.0979 79.618 2
      vertex 29.5 79 2
      vertex 77 79 2
    endloop
  endfacet
  facet normal 0 0 1
    outer loop
      vertex 77.382 80.1756 2
      vertex 29.5 79 2
      vertex 77.0979 79.618 2
    endloop
  endfacet
  facet normal 0 0 1
    outer loop
      vertex 77.0979 131.118 2
      vertex 29.5 130.5 2
      vertex 77 130.5 2
    endloop
  endfacet
  facet normal 0 0 1
    outer loop
      vertex 29.4021 131.118 2
      vertex 77.0979 131.118 2
      vertex 77.382 131.676 2
    endloop
  endfacet
  facet normal 0 0 1
    outer loop
      vertex 29.118 131.676 2
      vertex 77.382 131.676 2
      vertex 77.8244 132.118 2
    endloop
  endfacet
  facet normal 0 0 1
    outer loop
      vertex 78.382 132.402 2
      vertex 28.118 132.402 2
      vertex 77.8244 132.118 2
    endloop
  endfacet
  facet normal 0 0 1
    outer loop
      vertex 77.0979 131.118 2
      vertex 29.4021 131.118 2
      vertex 29.5 130.5 2
    endloop
  endfacet
  facet normal 0 0 1
    outer loop
      vertex 77.382 131.676 2
      vertex 29.118 131.676 2
      vertex 29.4021 131.118 2
    endloop
  endfacet
  facet normal 0 0 1
    outer loop
      vertex 77.8244 132.118 2
      vertex 28.6756 132.118 2
      vertex 29.118 131.676 2
    endloop
  endfacet
  facet normal 0 0 1
    outer loop
      vertex 77.8244 132.118 2
      vertex 28.118 132.402 2
      vertex 28.6756 132.118 2
    endloop
  endfacet
  facet normal -0 0 1
    outer loop
      vertex 1 156.25 2
      vertex 28.118 132.402 2
      vertex 105.25 156.25 2
    endloop
  endfacet
  facet normal 0 0 1
    outer loop
      vertex 28.118 132.402 2
      vertex 1 156.25 2
      vertex 27.5 132.5 2
    endloop
  endfacet
  facet normal 0 0 1
    outer loop
      vertex 25.5979 79.618 2
      vertex 1 124 2
      vertex 25.5 79 2
    endloop
  endfacet
  facet normal 0 0 1
    outer loop
      vertex 25.5979 131.118 2
      vertex 1 132 2
      vertex 25.5 130.5 2
    endloop
  endfacet
  facet normal 0 0 1
    outer loop
      vertex 25.882 131.676 2
      vertex 1 132 2
      vertex 25.5979 131.118 2
    endloop
  endfacet
  facet normal -0 0 1
    outer loop
      vertex 1 132 2
      vertex 25.882 131.676 2
      vertex 1 156.25 2
    endloop
  endfacet
  facet normal 0 0 1
    outer loop
      vertex 26.3244 132.118 2
      vertex 1 156.25 2
      vertex 25.882 131.676 2
    endloop
  endfacet
  facet normal 0 0 1
    outer loop
      vertex 26.882 132.402 2
      vertex 1 156.25 2
      vertex 26.3244 132.118 2
    endloop
  endfacet
  facet normal 0 0 1
    outer loop
      vertex 27.5 132.5 2
      vertex 1 156.25 2
      vertex 26.882 132.402 2
    endloop
  endfacet
  facet normal 0 0 1
    outer loop
      vertex 105.25 156.25 2
      vertex 81 79 2
      vertex 105.25 1 2
    endloop
  endfacet
  facet normal -0 0 1
    outer loop
      vertex 80.9021 78.382 2
      vertex 105.25 1 2
      vertex 81 79 2
    endloop
  endfacet
  facet normal -0 0 1
    outer loop
      vertex 80.9021 26.882 2
      vertex 105.25 1 2
      vertex 81 27.5 2
    endloop
  endfacet
  facet normal -0 0 1
    outer loop
      vertex 80.618 26.3244 2
      vertex 105.25 1 2
      vertex 80.9021 26.882 2
    endloop
  endfacet
  facet normal -0 0 1
    outer loop
      vertex 80.1756 25.882 2
      vertex 105.25 1 2
      vertex 80.618 26.3244 2
    endloop
  endfacet
  facet normal -0 0 1
    outer loop
      vertex 79.618 25.5979 2
      vertex 105.25 1 2
      vertex 80.1756 25.882 2
    endloop
  endfacet
  facet normal -0 0 1
    outer loop
      vertex 79 25.5 2
      vertex 105.25 1 2
      vertex 79.618 25.5979 2
    endloop
  endfacet
  facet normal 0 0 1
    outer loop
      vertex 78.382 25.5979 2
      vertex 105.25 1 2
      vertex 79 25.5 2
    endloop
  endfacet
  facet normal 0 0 1
    outer loop
      vertex 28.118 25.5979 2
      vertex 78.382 25.5979 2
      vertex 77.8244 25.882 2
    endloop
  endfacet
  facet normal 0 0 1
    outer loop
      vertex 77.382 28.6756 2
      vertex 29.5 27.5 2
      vertex 77.0979 28.118 2
    endloop
  endfacet
  facet normal 0 0 1
    outer loop
      vertex 77.0979 28.118 2
      vertex 29.5 27.5 2
      vertex 77 27.5 2
    endloop
  endfacet
  facet normal 0 0 1
    outer loop
      vertex 77 27.5 2
      vertex 29.5 27.5 2
      vertex 77.0979 26.882 2
    endloop
  endfacet
  facet normal 0 0 1
    outer loop
      vertex 29.4021 26.882 2
      vertex 77.0979 26.882 2
      vertex 29.5 27.5 2
    endloop
  endfacet
  facet normal 0 0 1
    outer loop
      vertex 77.0979 26.882 2
      vertex 29.4021 26.882 2
      vertex 77.382 26.3244 2
    endloop
  endfacet
  facet normal 0 0 1
    outer loop
      vertex 29.118 26.3244 2
      vertex 77.382 26.3244 2
      vertex 29.4021 26.882 2
    endloop
  endfacet
  facet normal 0 0 1
    outer loop
      vertex 77.382 26.3244 2
      vertex 29.118 26.3244 2
      vertex 77.8244 25.882 2
    endloop
  endfacet
  facet normal 0 0 1
    outer loop
      vertex 28.6756 25.882 2
      vertex 77.8244 25.882 2
      vertex 29.118 26.3244 2
    endloop
  endfacet
  facet normal 0 0 1
    outer loop
      vertex 28.118 25.5979 2
      vertex 77.8244 25.882 2
      vertex 28.6756 25.882 2
    endloop
  endfacet
  facet normal 0 0 1
    outer loop
      vertex 78.382 25.5979 2
      vertex 28.118 25.5979 2
      vertex 105.25 1 2
    endloop
  endfacet
  facet normal 0 0 1
    outer loop
      vertex 1 1 2
      vertex 28.118 25.5979 2
      vertex 27.5 25.5 2
    endloop
  endfacet
  facet normal 0 0 1
    outer loop
      vertex 1 1 2
      vertex 27.5 25.5 2
      vertex 26.882 25.5979 2
    endloop
  endfacet
  facet normal 0 0 1
    outer loop
      vertex 25.5979 129.882 2
      vertex 1 132 2
      vertex 1 124 2
    endloop
  endfacet
  facet normal 0 0 1
    outer loop
      vertex 25.5979 78.382 2
      vertex 1 124 2
      vertex 1 1 2
    endloop
  endfacet
  facet normal 0 0 1
    outer loop
      vertex 25.5979 28.118 2
      vertex 1 1 2
      vertex 25.5 27.5 2
    endloop
  endfacet
  facet normal 0 0 1
    outer loop
      vertex 28.118 25.5979 2
      vertex 1 1 2
      vertex 105.25 1 2
    endloop
  endfacet
  facet normal 0 0 1
    outer loop
      vertex 26.3244 25.882 2
      vertex 1 1 2
      vertex 26.882 25.5979 2
    endloop
  endfacet
  facet normal 0 0 1
    outer loop
      vertex 25.882 26.3244 2
      vertex 1 1 2
      vertex 26.3244 25.882 2
    endloop
  endfacet
  facet normal 0 0 1
    outer loop
      vertex 25.5979 26.882 2
      vertex 1 1 2
      vertex 25.882 26.3244 2
    endloop
  endfacet
  facet normal 0 0 1
    outer loop
      vertex 25.5 27.5 2
      vertex 1 1 2
      vertex 25.5979 26.882 2
    endloop
  endfacet
  facet normal 0 1 -0
    outer loop
      vertex 105.25 1 2
      vertex 1 1 6
      vertex 105.25 1 6
    endloop
  endfacet
  facet normal 0 1 0
    outer loop
      vertex 1 1 6
      vertex 105.25 1 2
      vertex 1 1 2
    endloop
  endfacet
  facet normal -0.987688 -0.156434 0
    outer loop
      vertex 29.5 27.5 0
      vertex 29.4021 28.118 2
      vertex 29.4021 28.118 0
    endloop
  endfacet
  facet normal -0.987688 -0.156434 0
    outer loop
      vertex 29.4021 28.118 2
      vertex 29.5 27.5 0
      vertex 29.5 27.5 2
    endloop
  endfacet
  facet normal -0.156434 -0.987688 0
    outer loop
      vertex 27.5 29.5 0
      vertex 28.118 29.4021 2
      vertex 27.5 29.5 2
    endloop
  endfacet
  facet normal -0.156434 -0.987688 -0
    outer loop
      vertex 28.118 29.4021 2
      vertex 27.5 29.5 0
      vertex 28.118 29.4021 0
    endloop
  endfacet
  facet normal 0.987689 0.156432 0
    outer loop
      vertex 25.5979 26.882 2
      vertex 25.5 27.5 0
      vertex 25.5 27.5 2
    endloop
  endfacet
  facet normal 0.987689 0.156432 0
    outer loop
      vertex 25.5 27.5 0
      vertex 25.5979 26.882 2
      vertex 25.5979 26.882 0
    endloop
  endfacet
  facet normal -0.453992 0.891006 0
    outer loop
      vertex 28.6756 25.882 0
      vertex 28.118 25.5979 2
      vertex 28.6756 25.882 2
    endloop
  endfacet
  facet normal -0.453992 0.891006 0
    outer loop
      vertex 28.118 25.5979 2
      vertex 28.6756 25.882 0
      vertex 28.118 25.5979 0
    endloop
  endfacet
  facet normal -0.156432 0.987689 0
    outer loop
      vertex 28.118 25.5979 0
      vertex 27.5 25.5 2
      vertex 28.118 25.5979 2
    endloop
  endfacet
  facet normal -0.156432 0.987689 0
    outer loop
      vertex 27.5 25.5 2
      vertex 28.118 25.5979 0
      vertex 27.5 25.5 0
    endloop
  endfacet
  facet normal -0.891007 -0.45399 0
    outer loop
      vertex 29.4021 28.118 0
      vertex 29.118 28.6756 2
      vertex 29.118 28.6756 0
    endloop
  endfacet
  facet normal -0.891007 -0.45399 0
    outer loop
      vertex 29.118 28.6756 2
      vertex 29.4021 28.118 0
      vertex 29.4021 28.118 2
    endloop
  endfacet
  facet normal 0.156434 -0.987688 0
    outer loop
      vertex 26.882 29.4021 0
      vertex 27.5 29.5 2
      vertex 26.882 29.4021 2
    endloop
  endfacet
  facet normal 0.156434 -0.987688 0
    outer loop
      vertex 27.5 29.5 2
      vertex 26.882 29.4021 0
      vertex 27.5 29.5 0
    endloop
  endfacet
  facet normal 0.45399 -0.891007 0
    outer loop
      vertex 26.3244 29.118 0
      vertex 26.882 29.4021 2
      vertex 26.3244 29.118 2
    endloop
  endfacet
  facet normal 0.45399 -0.891007 0
    outer loop
      vertex 26.882 29.4021 2
      vertex 26.3244 29.118 0
      vertex 26.882 29.4021 0
    endloop
  endfacet
  facet normal 0.891006 0.453992 0
    outer loop
      vertex 25.882 26.3244 2
      vertex 25.5979 26.882 0
      vertex 25.5979 26.882 2
    endloop
  endfacet
  facet normal 0.891006 0.453992 0
    outer loop
      vertex 25.5979 26.882 0
      vertex 25.882 26.3244 2
      vertex 25.882 26.3244 0
    endloop
  endfacet
  facet normal 0.156432 0.987689 -0
    outer loop
      vertex 27.5 25.5 0
      vertex 26.882 25.5979 2
      vertex 27.5 25.5 2
    endloop
  endfacet
  facet normal 0.156432 0.987689 0
    outer loop
      vertex 26.882 25.5979 2
      vertex 27.5 25.5 0
      vertex 26.882 25.5979 0
    endloop
  endfacet
  facet normal -0.707107 -0.707107 0
    outer loop
      vertex 29.118 28.6756 0
      vertex 28.6756 29.118 2
      vertex 28.6756 29.118 0
    endloop
  endfacet
  facet normal -0.707107 -0.707107 0
    outer loop
      vertex 28.6756 29.118 2
      vertex 29.118 28.6756 0
      vertex 29.118 28.6756 2
    endloop
  endfacet
  facet normal -0.45399 -0.891007 0
    outer loop
      vertex 28.118 29.4021 0
      vertex 28.6756 29.118 2
      vertex 28.118 29.4021 2
    endloop
  endfacet
  facet normal -0.45399 -0.891007 -0
    outer loop
      vertex 28.6756 29.118 2
      vertex 28.118 29.4021 0
      vertex 28.6756 29.118 0
    endloop
  endfacet
  facet normal 0.987689 -0.156432 0
    outer loop
      vertex 25.5 27.5 2
      vertex 25.5979 28.118 0
      vertex 25.5979 28.118 2
    endloop
  endfacet
  facet normal 0.987689 -0.156432 0
    outer loop
      vertex 25.5979 28.118 0
      vertex 25.5 27.5 2
      vertex 25.5 27.5 0
    endloop
  endfacet
  facet normal 0.707107 -0.707107 0
    outer loop
      vertex 25.882 28.6756 2
      vertex 26.3244 29.118 0
      vertex 26.3244 29.118 2
    endloop
  endfacet
  facet normal 0.707107 -0.707107 0
    outer loop
      vertex 26.3244 29.118 0
      vertex 25.882 28.6756 2
      vertex 25.882 28.6756 0
    endloop
  endfacet
  facet normal 0.891006 -0.453992 0
    outer loop
      vertex 25.5979 28.118 2
      vertex 25.882 28.6756 0
      vertex 25.882 28.6756 2
    endloop
  endfacet
  facet normal 0.891006 -0.453992 0
    outer loop
      vertex 25.882 28.6756 0
      vertex 25.5979 28.118 2
      vertex 25.5979 28.118 0
    endloop
  endfacet
  facet normal -0.707107 0.707107 0
    outer loop
      vertex 28.6756 25.882 0
      vertex 29.118 26.3244 2
      vertex 29.118 26.3244 0
    endloop
  endfacet
  facet normal -0.707107 0.707107 0
    outer loop
      vertex 29.118 26.3244 2
      vertex 28.6756 25.882 0
      vertex 28.6756 25.882 2
    endloop
  endfacet
  facet normal 0.707107 0.707107 0
    outer loop
      vertex 26.3244 25.882 2
      vertex 25.882 26.3244 0
      vertex 25.882 26.3244 2
    endloop
  endfacet
  facet normal 0.707107 0.707107 0
    outer loop
      vertex 25.882 26.3244 0
      vertex 26.3244 25.882 2
      vertex 26.3244 25.882 0
    endloop
  endfacet
  facet normal 0.453992 0.891006 -0
    outer loop
      vertex 26.882 25.5979 0
      vertex 26.3244 25.882 2
      vertex 26.882 25.5979 2
    endloop
  endfacet
  facet normal 0.453992 0.891006 0
    outer loop
      vertex 26.3244 25.882 2
      vertex 26.882 25.5979 0
      vertex 26.3244 25.882 0
    endloop
  endfacet
  facet normal -0.891007 0.45399 0
    outer loop
      vertex 29.118 26.3244 0
      vertex 29.4021 26.882 2
      vertex 29.4021 26.882 0
    endloop
  endfacet
  facet normal -0.891007 0.45399 0
    outer loop
      vertex 29.4021 26.882 2
      vertex 29.118 26.3244 0
      vertex 29.118 26.3244 2
    endloop
  endfacet
  facet normal -0.987688 0.156434 0
    outer loop
      vertex 29.4021 26.882 0
      vertex 29.5 27.5 2
      vertex 29.5 27.5 0
    endloop
  endfacet
  facet normal -0.987688 0.156434 0
    outer loop
      vertex 29.5 27.5 2
      vertex 29.4021 26.882 0
      vertex 29.4021 26.882 2
    endloop
  endfacet
  facet normal -0.987688 -0.156434 0
    outer loop
      vertex 29.5 79 0
      vertex 29.4021 79.618 2
      vertex 29.4021 79.618 0
    endloop
  endfacet
  facet normal -0.987688 -0.156434 0
    outer loop
      vertex 29.4021 79.618 2
      vertex 29.5 79 0
      vertex 29.5 79 2
    endloop
  endfacet
  facet normal -0.156432 -0.987689 0
    outer loop
      vertex 27.5 81 0
      vertex 28.118 80.9021 2
      vertex 27.5 81 2
    endloop
  endfacet
  facet normal -0.156432 -0.987689 -0
    outer loop
      vertex 28.118 80.9021 2
      vertex 27.5 81 0
      vertex 28.118 80.9021 0
    endloop
  endfacet
  facet normal 0.987689 0.156432 0
    outer loop
      vertex 25.5979 78.382 2
      vertex 25.5 79 0
      vertex 25.5 79 2
    endloop
  endfacet
  facet normal 0.987689 0.156432 0
    outer loop
      vertex 25.5 79 0
      vertex 25.5979 78.382 2
      vertex 25.5979 78.382 0
    endloop
  endfacet
  facet normal -0.453992 0.891006 0
    outer loop
      vertex 28.6756 77.382 0
      vertex 28.118 77.0979 2
      vertex 28.6756 77.382 2
    endloop
  endfacet
  facet normal -0.453992 0.891006 0
    outer loop
      vertex 28.118 77.0979 2
      vertex 28.6756 77.382 0
      vertex 28.118 77.0979 0
    endloop
  endfacet
  facet normal -0.156432 0.987689 0
    outer loop
      vertex 28.118 77.0979 0
      vertex 27.5 77 2
      vertex 28.118 77.0979 2
    endloop
  endfacet
  facet normal -0.156432 0.987689 0
    outer loop
      vertex 27.5 77 2
      vertex 28.118 77.0979 0
      vertex 27.5 77 0
    endloop
  endfacet
  facet normal -0.891006 -0.453992 0
    outer loop
      vertex 29.4021 79.618 0
      vertex 29.118 80.1756 2
      vertex 29.118 80.1756 0
    endloop
  endfacet
  facet normal -0.891006 -0.453992 0
    outer loop
      vertex 29.118 80.1756 2
      vertex 29.4021 79.618 0
      vertex 29.4021 79.618 2
    endloop
  endfacet
  facet normal 0.156432 -0.987689 0
    outer loop
      vertex 26.882 80.9021 0
      vertex 27.5 81 2
      vertex 26.882 80.9021 2
    endloop
  endfacet
  facet normal 0.156432 -0.987689 0
    outer loop
      vertex 27.5 81 2
      vertex 26.882 80.9021 0
      vertex 27.5 81 0
    endloop
  endfacet
  facet normal 0.453992 -0.891006 0
    outer loop
      vertex 26.3244 80.618 0
      vertex 26.882 80.9021 2
      vertex 26.3244 80.618 2
    endloop
  endfacet
  facet normal 0.453992 -0.891006 0
    outer loop
      vertex 26.882 80.9021 2
      vertex 26.3244 80.618 0
      vertex 26.882 80.9021 0
    endloop
  endfacet
  facet normal 0.891005 0.453994 0
    outer loop
      vertex 25.882 77.8244 2
      vertex 25.5979 78.382 0
      vertex 25.5979 78.382 2
    endloop
  endfacet
  facet normal 0.891005 0.453994 0
    outer loop
      vertex 25.5979 78.382 0
      vertex 25.882 77.8244 2
      vertex 25.882 77.8244 0
    endloop
  endfacet
  facet normal 0.156432 0.987689 -0
    outer loop
      vertex 27.5 77 0
      vertex 26.882 77.0979 2
      vertex 27.5 77 2
    endloop
  endfacet
  facet normal 0.156432 0.987689 0
    outer loop
      vertex 26.882 77.0979 2
      vertex 27.5 77 0
      vertex 26.882 77.0979 0
    endloop
  endfacet
  facet normal -0.70711 -0.707104 0
    outer loop
      vertex 29.118 80.1756 0
      vertex 28.6756 80.618 2
      vertex 28.6756 80.618 0
    endloop
  endfacet
  facet normal -0.70711 -0.707104 0
    outer loop
      vertex 28.6756 80.618 2
      vertex 29.118 80.1756 0
      vertex 29.118 80.1756 2
    endloop
  endfacet
  facet normal -0.453992 -0.891006 0
    outer loop
      vertex 28.118 80.9021 0
      vertex 28.6756 80.618 2
      vertex 28.118 80.9021 2
    endloop
  endfacet
  facet normal -0.453992 -0.891006 -0
    outer loop
      vertex 28.6756 80.618 2
      vertex 28.118 80.9021 0
      vertex 28.6756 80.618 0
    endloop
  endfacet
  facet normal 0.987689 -0.156432 0
    outer loop
      vertex 25.5 79 2
      vertex 25.5979 79.618 0
      vertex 25.5979 79.618 2
    endloop
  endfacet
  facet normal 0.987689 -0.156432 0
    outer loop
      vertex 25.5979 79.618 0
      vertex 25.5 79 2
      vertex 25.5 79 0
    endloop
  endfacet
  facet normal 0.70711 -0.707104 0
    outer loop
      vertex 25.882 80.1756 2
      vertex 26.3244 80.618 0
      vertex 26.3244 80.618 2
    endloop
  endfacet
  facet normal 0.70711 -0.707104 0
    outer loop
      vertex 26.3244 80.618 0
      vertex 25.882 80.1756 2
      vertex 25.882 80.1756 0
    endloop
  endfacet
  facet normal 0.891005 -0.453994 0
    outer loop
      vertex 25.5979 79.618 2
      vertex 25.882 80.1756 0
      vertex 25.882 80.1756 2
    endloop
  endfacet
  facet normal 0.891005 -0.453994 0
    outer loop
      vertex 25.882 80.1756 0
      vertex 25.5979 79.618 2
      vertex 25.5979 79.618 0
    endloop
  endfacet
  facet normal -0.70711 0.707104 0
    outer loop
      vertex 28.6756 77.382 0
      vertex 29.118 77.8244 2
      vertex 29.118 77.8244 0
    endloop
  endfacet
  facet normal -0.70711 0.707104 0
    outer loop
      vertex 29.118 77.8244 2
      vertex 28.6756 77.382 0
      vertex 28.6756 77.382 2
    endloop
  endfacet
  facet normal 0.70711 0.707104 0
    outer loop
      vertex 26.3244 77.382 2
      vertex 25.882 77.8244 0
      vertex 25.882 77.8244 2
    endloop
  endfacet
  facet normal 0.70711 0.707104 0
    outer loop
      vertex 25.882 77.8244 0
      vertex 26.3244 77.382 2
      vertex 26.3244 77.382 0
    endloop
  endfacet
  facet normal 0.453992 0.891006 -0
    outer loop
      vertex 26.882 77.0979 0
      vertex 26.3244 77.382 2
      vertex 26.882 77.0979 2
    endloop
  endfacet
  facet normal 0.453992 0.891006 0
    outer loop
      vertex 26.3244 77.382 2
      vertex 26.882 77.0979 0
      vertex 26.3244 77.382 0
    endloop
  endfacet
  facet normal -0.891006 0.453992 0
    outer loop
      vertex 29.118 77.8244 0
      vertex 29.4021 78.382 2
      vertex 29.4021 78.382 0
    endloop
  endfacet
  facet normal -0.891006 0.453992 0
    outer loop
      vertex 29.4021 78.382 2
      vertex 29.118 77.8244 0
      vertex 29.118 77.8244 2
    endloop
  endfacet
  facet normal -0.987688 0.156434 0
    outer loop
      vertex 29.4021 78.382 0
      vertex 29.5 79 2
      vertex 29.5 79 0
    endloop
  endfacet
  facet normal -0.987688 0.156434 0
    outer loop
      vertex 29.5 79 2
      vertex 29.4021 78.382 0
      vertex 29.4021 78.382 2
    endloop
  endfacet
  facet normal -0.987688 -0.156436 0
    outer loop
      vertex 29.5 130.5 0
      vertex 29.4021 131.118 2
      vertex 29.4021 131.118 0
    endloop
  endfacet
  facet normal -0.987688 -0.156436 0
    outer loop
      vertex 29.4021 131.118 2
      vertex 29.5 130.5 0
      vertex 29.5 130.5 2
    endloop
  endfacet
  facet normal -0.156432 -0.987689 0
    outer loop
      vertex 27.5 132.5 0
      vertex 28.118 132.402 2
      vertex 27.5 132.5 2
    endloop
  endfacet
  facet normal -0.156432 -0.987689 -0
    outer loop
      vertex 28.118 132.402 2
      vertex 27.5 132.5 0
      vertex 28.118 132.402 0
    endloop
  endfacet
  facet normal 0.987689 0.15643 0
    outer loop
      vertex 25.5979 129.882 2
      vertex 25.5 130.5 0
      vertex 25.5 130.5 2
    endloop
  endfacet
  facet normal 0.987689 0.15643 0
    outer loop
      vertex 25.5 130.5 0
      vertex 25.5979 129.882 2
      vertex 25.5979 129.882 0
    endloop
  endfacet
  facet normal -0.453982 0.891011 0
    outer loop
      vertex 28.6756 128.882 0
      vertex 28.118 128.598 2
      vertex 28.6756 128.882 2
    endloop
  endfacet
  facet normal -0.453982 0.891011 0
    outer loop
      vertex 28.118 128.598 2
      vertex 28.6756 128.882 0
      vertex 28.118 128.598 0
    endloop
  endfacet
  facet normal -0.156432 0.987689 0
    outer loop
      vertex 28.118 128.598 0
      vertex 27.5 128.5 2
      vertex 28.118 128.598 2
    endloop
  endfacet
  facet normal -0.156432 0.987689 0
    outer loop
      vertex 27.5 128.5 2
      vertex 28.118 128.598 0
      vertex 27.5 128.5 0
    endloop
  endfacet
  facet normal -0.891008 -0.453987 0
    outer loop
      vertex 29.4021 131.118 0
      vertex 29.118 131.676 2
      vertex 29.118 131.676 0
    endloop
  endfacet
  facet normal -0.891008 -0.453987 0
    outer loop
      vertex 29.118 131.676 2
      vertex 29.4021 131.118 0
      vertex 29.4021 131.118 2
    endloop
  endfacet
  facet normal 0.156432 -0.987689 0
    outer loop
      vertex 26.882 132.402 0
      vertex 27.5 132.5 2
      vertex 26.882 132.402 2
    endloop
  endfacet
  facet normal 0.156432 -0.987689 0
    outer loop
      vertex 27.5 132.5 2
      vertex 26.882 132.402 0
      vertex 27.5 132.5 0
    endloop
  endfacet
  facet normal 0.454002 -0.891001 0
    outer loop
      vertex 26.3244 132.118 0
      vertex 26.882 132.402 2
      vertex 26.3244 132.118 2
    endloop
  endfacet
  facet normal 0.454002 -0.891001 0
    outer loop
      vertex 26.882 132.402 2
      vertex 26.3244 132.118 0
      vertex 26.882 132.402 0
    endloop
  endfacet
  facet normal 0.987689 -0.156433 0
    outer loop
      vertex 25.5 130.5 2
      vertex 25.5979 131.118 0
      vertex 25.5979 131.118 2
    endloop
  endfacet
  facet normal 0.987689 -0.156433 0
    outer loop
      vertex 25.5979 131.118 0
      vertex 25.5 130.5 2
      vertex 25.5 130.5 0
    endloop
  endfacet
  facet normal 0.891002 0.453999 0
    outer loop
      vertex 25.882 129.324 2
      vertex 25.5979 129.882 0
      vertex 25.5979 129.882 2
    endloop
  endfacet
  facet normal 0.891002 0.453999 0
    outer loop
      vertex 25.5979 129.882 0
      vertex 25.882 129.324 2
      vertex 25.882 129.324 0
    endloop
  endfacet
  facet normal 0.156432 0.987689 -0
    outer loop
      vertex 27.5 128.5 0
      vertex 26.882 128.598 2
      vertex 27.5 128.5 2
    endloop
  endfacet
  facet normal 0.156432 0.987689 0
    outer loop
      vertex 26.882 128.598 2
      vertex 27.5 128.5 0
      vertex 26.882 128.598 0
    endloop
  endfacet
  facet normal -0.707104 -0.70711 0
    outer loop
      vertex 28.6756 132.118 0
      vertex 29.118 131.676 2
      vertex 28.6756 132.118 2
    endloop
  endfacet
  facet normal -0.707104 -0.70711 -0
    outer loop
      vertex 29.118 131.676 2
      vertex 28.6756 132.118 0
      vertex 29.118 131.676 0
    endloop
  endfacet
  facet normal -0.454002 -0.891001 0
    outer loop
      vertex 28.118 132.402 0
      vertex 28.6756 132.118 2
      vertex 28.118 132.402 2
    endloop
  endfacet
  facet normal -0.454002 -0.891001 -0
    outer loop
      vertex 28.6756 132.118 2
      vertex 28.118 132.402 0
      vertex 28.6756 132.118 0
    endloop
  endfacet
  facet normal 0.707104 -0.70711 0
    outer loop
      vertex 25.882 131.676 0
      vertex 26.3244 132.118 2
      vertex 25.882 131.676 2
    endloop
  endfacet
  facet normal 0.707104 -0.70711 0
    outer loop
      vertex 26.3244 132.118 2
      vertex 25.882 131.676 0
      vertex 26.3244 132.118 0
    endloop
  endfacet
  facet normal 0.891007 -0.45399 0
    outer loop
      vertex 25.5979 131.118 2
      vertex 25.882 131.676 0
      vertex 25.882 131.676 2
    endloop
  endfacet
  facet normal 0.891007 -0.45399 0
    outer loop
      vertex 25.882 131.676 0
      vertex 25.5979 131.118 2
      vertex 25.5979 131.118 0
    endloop
  endfacet
  facet normal -0.707116 0.707098 0
    outer loop
      vertex 28.6756 128.882 0
      vertex 29.118 129.324 2
      vertex 29.118 129.324 0
    endloop
  endfacet
  facet normal -0.707116 0.707098 0
    outer loop
      vertex 29.118 129.324 2
      vertex 28.6756 128.882 0
      vertex 28.6756 128.882 2
    endloop
  endfacet
  facet normal 0.707116 0.707098 0
    outer loop
      vertex 26.3244 128.882 2
      vertex 25.882 129.324 0
      vertex 25.882 129.324 2
    endloop
  endfacet
  facet normal 0.707116 0.707098 0
    outer loop
      vertex 25.882 129.324 0
      vertex 26.3244 128.882 2
      vertex 26.3244 128.882 0
    endloop
  endfacet
  facet normal 0.453982 0.891011 -0
    outer loop
      vertex 26.882 128.598 0
      vertex 26.3244 128.882 2
      vertex 26.882 128.598 2
    endloop
  endfacet
  facet normal 0.453982 0.891011 0
    outer loop
      vertex 26.3244 128.882 2
      vertex 26.882 128.598 0
      vertex 26.3244 128.882 0
    endloop
  endfacet
  facet normal -0.891003 0.453997 0
    outer loop
      vertex 29.118 129.324 0
      vertex 29.4021 129.882 2
      vertex 29.4021 129.882 0
    endloop
  endfacet
  facet normal -0.891003 0.453997 0
    outer loop
      vertex 29.4021 129.882 2
      vertex 29.118 129.324 0
      vertex 29.118 129.324 2
    endloop
  endfacet
  facet normal -0.987689 0.156433 0
    outer loop
      vertex 29.4021 129.882 0
      vertex 29.5 130.5 2
      vertex 29.5 130.5 0
    endloop
  endfacet
  facet normal -0.987689 0.156433 0
    outer loop
      vertex 29.5 130.5 2
      vertex 29.4021 129.882 0
      vertex 29.4021 129.882 2
    endloop
  endfacet
  facet normal -0.987689 -0.156432 0
    outer loop
      vertex 81 27.5 0
      vertex 80.9021 28.118 2
      vertex 80.9021 28.118 0
    endloop
  endfacet
  facet normal -0.987689 -0.156432 0
    outer loop
      vertex 80.9021 28.118 2
      vertex 81 27.5 0
      vertex 81 27.5 2
    endloop
  endfacet
  facet normal -0.156434 -0.987688 0
    outer loop
      vertex 79 29.5 0
      vertex 79.618 29.4021 2
      vertex 79 29.5 2
    endloop
  endfacet
  facet normal -0.156434 -0.987688 -0
    outer loop
      vertex 79.618 29.4021 2
      vertex 79 29.5 0
      vertex 79.618 29.4021 0
    endloop
  endfacet
  facet normal 0.987689 0.156432 0
    outer loop
      vertex 77.0979 26.882 2
      vertex 77 27.5 0
      vertex 77 27.5 2
    endloop
  endfacet
  facet normal 0.987689 0.156432 0
    outer loop
      vertex 77 27.5 0
      vertex 77.0979 26.882 2
      vertex 77.0979 26.882 0
    endloop
  endfacet
  facet normal -0.453994 0.891005 0
    outer loop
      vertex 80.1756 25.882 0
      vertex 79.618 25.5979 2
      vertex 80.1756 25.882 2
    endloop
  endfacet
  facet normal -0.453994 0.891005 0
    outer loop
      vertex 79.618 25.5979 2
      vertex 80.1756 25.882 0
      vertex 79.618 25.5979 0
    endloop
  endfacet
  facet normal -0.156432 0.987689 0
    outer loop
      vertex 79.618 25.5979 0
      vertex 79 25.5 2
      vertex 79.618 25.5979 2
    endloop
  endfacet
  facet normal -0.156432 0.987689 0
    outer loop
      vertex 79 25.5 2
      vertex 79.618 25.5979 0
      vertex 79 25.5 0
    endloop
  endfacet
  facet normal -0.891006 -0.453992 0
    outer loop
      vertex 80.9021 28.118 0
      vertex 80.618 28.6756 2
      vertex 80.618 28.6756 0
    endloop
  endfacet
  facet normal -0.891006 -0.453992 0
    outer loop
      vertex 80.618 28.6756 2
      vertex 80.9021 28.118 0
      vertex 80.9021 28.118 2
    endloop
  endfacet
  facet normal 0.156434 -0.987688 0
    outer loop
      vertex 78.382 29.4021 0
      vertex 79 29.5 2
      vertex 78.382 29.4021 2
    endloop
  endfacet
  facet normal 0.156434 -0.987688 0
    outer loop
      vertex 79 29.5 2
      vertex 78.382 29.4021 0
      vertex 79 29.5 0
    endloop
  endfacet
  facet normal 0.453992 -0.891006 0
    outer loop
      vertex 77.8244 29.118 0
      vertex 78.382 29.4021 2
      vertex 77.8244 29.118 2
    endloop
  endfacet
  facet normal 0.453992 -0.891006 0
    outer loop
      vertex 78.382 29.4021 2
      vertex 77.8244 29.118 0
      vertex 78.382 29.4021 0
    endloop
  endfacet
  facet normal 0.891006 0.453992 0
    outer loop
      vertex 77.382 26.3244 2
      vertex 77.0979 26.882 0
      vertex 77.0979 26.882 2
    endloop
  endfacet
  facet normal 0.891006 0.453992 0
    outer loop
      vertex 77.0979 26.882 0
      vertex 77.382 26.3244 2
      vertex 77.382 26.3244 0
    endloop
  endfacet
  facet normal 0.156432 0.987689 -0
    outer loop
      vertex 79 25.5 0
      vertex 78.382 25.5979 2
      vertex 79 25.5 2
    endloop
  endfacet
  facet normal 0.156432 0.987689 0
    outer loop
      vertex 78.382 25.5979 2
      vertex 79 25.5 0
      vertex 78.382 25.5979 0
    endloop
  endfacet
  facet normal -0.707104 -0.70711 0
    outer loop
      vertex 80.1756 29.118 0
      vertex 80.618 28.6756 2
      vertex 80.1756 29.118 2
    endloop
  endfacet
  facet normal -0.707104 -0.70711 -0
    outer loop
      vertex 80.618 28.6756 2
      vertex 80.1756 29.118 0
      vertex 80.618 28.6756 0
    endloop
  endfacet
  facet normal -0.453992 -0.891006 0
    outer loop
      vertex 79.618 29.4021 0
      vertex 80.1756 29.118 2
      vertex 79.618 29.4021 2
    endloop
  endfacet
  facet normal -0.453992 -0.891006 -0
    outer loop
      vertex 80.1756 29.118 2
      vertex 79.618 29.4021 0
      vertex 80.1756 29.118 0
    endloop
  endfacet
  facet normal 0.987689 -0.156432 0
    outer loop
      vertex 77 27.5 2
      vertex 77.0979 28.118 0
      vertex 77.0979 28.118 2
    endloop
  endfacet
  facet normal 0.987689 -0.156432 0
    outer loop
      vertex 77.0979 28.118 0
      vertex 77 27.5 2
      vertex 77 27.5 0
    endloop
  endfacet
  facet normal 0.707104 -0.70711 0
    outer loop
      vertex 77.382 28.6756 0
      vertex 77.8244 29.118 2
      vertex 77.382 28.6756 2
    endloop
  endfacet
  facet normal 0.707104 -0.70711 0
    outer loop
      vertex 77.8244 29.118 2
      vertex 77.382 28.6756 0
      vertex 77.8244 29.118 0
    endloop
  endfacet
  facet normal 0.891006 -0.453992 0
    outer loop
      vertex 77.0979 28.118 2
      vertex 77.382 28.6756 0
      vertex 77.382 28.6756 2
    endloop
  endfacet
  facet normal 0.891006 -0.453992 0
    outer loop
      vertex 77.382 28.6756 0
      vertex 77.0979 28.118 2
      vertex 77.0979 28.118 0
    endloop
  endfacet
  facet normal -0.707104 0.70711 0
    outer loop
      vertex 80.618 26.3244 0
      vertex 80.1756 25.882 2
      vertex 80.618 26.3244 2
    endloop
  endfacet
  facet normal -0.707104 0.70711 0
    outer loop
      vertex 80.1756 25.882 2
      vertex 80.618 26.3244 0
      vertex 80.1756 25.882 0
    endloop
  endfacet
  facet normal 0.707104 0.70711 -0
    outer loop
      vertex 77.8244 25.882 0
      vertex 77.382 26.3244 2
      vertex 77.8244 25.882 2
    endloop
  endfacet
  facet normal 0.707104 0.70711 0
    outer loop
      vertex 77.382 26.3244 2
      vertex 77.8244 25.882 0
      vertex 77.382 26.3244 0
    endloop
  endfacet
  facet normal -0.891006 0.453992 0
    outer loop
      vertex 80.618 26.3244 0
      vertex 80.9021 26.882 2
      vertex 80.9021 26.882 0
    endloop
  endfacet
  facet normal -0.891006 0.453992 0
    outer loop
      vertex 80.9021 26.882 2
      vertex 80.618 26.3244 0
      vertex 80.618 26.3244 2
    endloop
  endfacet
  facet normal -0.987689 0.156432 0
    outer loop
      vertex 80.9021 26.882 0
      vertex 81 27.5 2
      vertex 81 27.5 0
    endloop
  endfacet
  facet normal -0.987689 0.156432 0
    outer loop
      vertex 81 27.5 2
      vertex 80.9021 26.882 0
      vertex 80.9021 26.882 2
    endloop
  endfacet
  facet normal 0.453994 0.891005 -0
    outer loop
      vertex 78.382 25.5979 0
      vertex 77.8244 25.882 2
      vertex 78.382 25.5979 2
    endloop
  endfacet
  facet normal 0.453994 0.891005 0
    outer loop
      vertex 77.8244 25.882 2
      vertex 78.382 25.5979 0
      vertex 77.8244 25.882 0
    endloop
  endfacet
  facet normal -0.987689 -0.156432 0
    outer loop
      vertex 81 79 0
      vertex 80.9021 79.618 2
      vertex 80.9021 79.618 0
    endloop
  endfacet
  facet normal -0.987689 -0.156432 0
    outer loop
      vertex 80.9021 79.618 2
      vertex 81 79 0
      vertex 81 79 2
    endloop
  endfacet
  facet normal -0.156432 -0.987689 0
    outer loop
      vertex 79 81 0
      vertex 79.618 80.9021 2
      vertex 79 81 2
    endloop
  endfacet
  facet normal -0.156432 -0.987689 -0
    outer loop
      vertex 79.618 80.9021 2
      vertex 79 81 0
      vertex 79.618 80.9021 0
    endloop
  endfacet
  facet normal 0.987689 0.156432 0
    outer loop
      vertex 77.0979 78.382 2
      vertex 77 79 0
      vertex 77 79 2
    endloop
  endfacet
  facet normal 0.987689 0.156432 0
    outer loop
      vertex 77 79 0
      vertex 77.0979 78.382 2
      vertex 77.0979 78.382 0
    endloop
  endfacet
  facet normal -0.453994 0.891005 0
    outer loop
      vertex 80.1756 77.382 0
      vertex 79.618 77.0979 2
      vertex 80.1756 77.382 2
    endloop
  endfacet
  facet normal -0.453994 0.891005 0
    outer loop
      vertex 79.618 77.0979 2
      vertex 80.1756 77.382 0
      vertex 79.618 77.0979 0
    endloop
  endfacet
  facet normal -0.156432 0.987689 0
    outer loop
      vertex 79.618 77.0979 0
      vertex 79 77 2
      vertex 79.618 77.0979 2
    endloop
  endfacet
  facet normal -0.156432 0.987689 0
    outer loop
      vertex 79 77 2
      vertex 79.618 77.0979 0
      vertex 79 77 0
    endloop
  endfacet
  facet normal -0.891005 -0.453994 0
    outer loop
      vertex 80.9021 79.618 0
      vertex 80.618 80.1756 2
      vertex 80.618 80.1756 0
    endloop
  endfacet
  facet normal -0.891005 -0.453994 0
    outer loop
      vertex 80.618 80.1756 2
      vertex 80.9021 79.618 0
      vertex 80.9021 79.618 2
    endloop
  endfacet
  facet normal 0.156432 -0.987689 0
    outer loop
      vertex 78.382 80.9021 0
      vertex 79 81 2
      vertex 78.382 80.9021 2
    endloop
  endfacet
  facet normal 0.156432 -0.987689 0
    outer loop
      vertex 79 81 2
      vertex 78.382 80.9021 0
      vertex 79 81 0
    endloop
  endfacet
  facet normal 0.453994 -0.891005 0
    outer loop
      vertex 77.8244 80.618 0
      vertex 78.382 80.9021 2
      vertex 77.8244 80.618 2
    endloop
  endfacet
  facet normal 0.453994 -0.891005 0
    outer loop
      vertex 78.382 80.9021 2
      vertex 77.8244 80.618 0
      vertex 78.382 80.9021 0
    endloop
  endfacet
  facet normal 0.987689 -0.156432 0
    outer loop
      vertex 77 79 2
      vertex 77.0979 79.618 0
      vertex 77.0979 79.618 2
    endloop
  endfacet
  facet normal 0.987689 -0.156432 0
    outer loop
      vertex 77.0979 79.618 0
      vertex 77 79 2
      vertex 77 79 0
    endloop
  endfacet
  facet normal 0.891005 0.453994 0
    outer loop
      vertex 77.382 77.8244 2
      vertex 77.0979 78.382 0
      vertex 77.0979 78.382 2
    endloop
  endfacet
  facet normal 0.891005 0.453994 0
    outer loop
      vertex 77.0979 78.382 0
      vertex 77.382 77.8244 2
      vertex 77.382 77.8244 0
    endloop
  endfacet
  facet normal 0.156432 0.987689 -0
    outer loop
      vertex 79 77 0
      vertex 78.382 77.0979 2
      vertex 79 77 2
    endloop
  endfacet
  facet normal 0.156432 0.987689 0
    outer loop
      vertex 78.382 77.0979 2
      vertex 79 77 0
      vertex 78.382 77.0979 0
    endloop
  endfacet
  facet normal -0.707107 -0.707107 0
    outer loop
      vertex 80.618 80.1756 0
      vertex 80.1756 80.618 2
      vertex 80.1756 80.618 0
    endloop
  endfacet
  facet normal -0.707107 -0.707107 0
    outer loop
      vertex 80.1756 80.618 2
      vertex 80.618 80.1756 0
      vertex 80.618 80.1756 2
    endloop
  endfacet
  facet normal -0.453994 -0.891005 0
    outer loop
      vertex 79.618 80.9021 0
      vertex 80.1756 80.618 2
      vertex 79.618 80.9021 2
    endloop
  endfacet
  facet normal -0.453994 -0.891005 -0
    outer loop
      vertex 80.1756 80.618 2
      vertex 79.618 80.9021 0
      vertex 80.1756 80.618 0
    endloop
  endfacet
  facet normal 0.707107 -0.707107 0
    outer loop
      vertex 77.382 80.1756 2
      vertex 77.8244 80.618 0
      vertex 77.8244 80.618 2
    endloop
  endfacet
  facet normal 0.707107 -0.707107 0
    outer loop
      vertex 77.8244 80.618 0
      vertex 77.382 80.1756 2
      vertex 77.382 80.1756 0
    endloop
  endfacet
  facet normal 0.891005 -0.453994 0
    outer loop
      vertex 77.0979 79.618 2
      vertex 77.382 80.1756 0
      vertex 77.382 80.1756 2
    endloop
  endfacet
  facet normal 0.891005 -0.453994 0
    outer loop
      vertex 77.382 80.1756 0
      vertex 77.0979 79.618 2
      vertex 77.0979 79.618 0
    endloop
  endfacet
  facet normal -0.707107 0.707107 0
    outer loop
      vertex 80.1756 77.382 0
      vertex 80.618 77.8244 2
      vertex 80.618 77.8244 0
    endloop
  endfacet
  facet normal -0.707107 0.707107 0
    outer loop
      vertex 80.618 77.8244 2
      vertex 80.1756 77.382 0
      vertex 80.1756 77.382 2
    endloop
  endfacet
  facet normal 0.707107 0.707107 0
    outer loop
      vertex 77.8244 77.382 2
      vertex 77.382 77.8244 0
      vertex 77.382 77.8244 2
    endloop
  endfacet
  facet normal 0.707107 0.707107 0
    outer loop
      vertex 77.382 77.8244 0
      vertex 77.8244 77.382 2
      vertex 77.8244 77.382 0
    endloop
  endfacet
  facet normal 0.453994 0.891005 -0
    outer loop
      vertex 78.382 77.0979 0
      vertex 77.8244 77.382 2
      vertex 78.382 77.0979 2
    endloop
  endfacet
  facet normal 0.453994 0.891005 0
    outer loop
      vertex 77.8244 77.382 2
      vertex 78.382 77.0979 0
      vertex 77.8244 77.382 0
    endloop
  endfacet
  facet normal -0.891005 0.453994 0
    outer loop
      vertex 80.618 77.8244 0
      vertex 80.9021 78.382 2
      vertex 80.9021 78.382 0
    endloop
  endfacet
  facet normal -0.891005 0.453994 0
    outer loop
      vertex 80.9021 78.382 2
      vertex 80.618 77.8244 0
      vertex 80.618 77.8244 2
    endloop
  endfacet
  facet normal -0.987689 0.156432 0
    outer loop
      vertex 80.9021 78.382 0
      vertex 81 79 2
      vertex 81 79 0
    endloop
  endfacet
  facet normal -0.987689 0.156432 0
    outer loop
      vertex 81 79 2
      vertex 80.9021 78.382 0
      vertex 80.9021 78.382 2
    endloop
  endfacet
  facet normal -0.987689 -0.156433 0
    outer loop
      vertex 81 130.5 0
      vertex 80.9021 131.118 2
      vertex 80.9021 131.118 0
    endloop
  endfacet
  facet normal -0.987689 -0.156433 0
    outer loop
      vertex 80.9021 131.118 2
      vertex 81 130.5 0
      vertex 81 130.5 2
    endloop
  endfacet
  facet normal -0.156432 -0.987689 0
    outer loop
      vertex 79 132.5 0
      vertex 79.618 132.402 2
      vertex 79 132.5 2
    endloop
  endfacet
  facet normal -0.156432 -0.987689 -0
    outer loop
      vertex 79.618 132.402 2
      vertex 79 132.5 0
      vertex 79.618 132.402 0
    endloop
  endfacet
  facet normal 0.987689 0.15643 0
    outer loop
      vertex 77.0979 129.882 2
      vertex 77 130.5 0
      vertex 77 130.5 2
    endloop
  endfacet
  facet normal 0.987689 0.15643 0
    outer loop
      vertex 77 130.5 0
      vertex 77.0979 129.882 2
      vertex 77.0979 129.882 0
    endloop
  endfacet
  facet normal -0.453985 0.891009 0
    outer loop
      vertex 80.1756 128.882 0
      vertex 79.618 128.598 2
      vertex 80.1756 128.882 2
    endloop
  endfacet
  facet normal -0.453985 0.891009 0
    outer loop
      vertex 79.618 128.598 2
      vertex 80.1756 128.882 0
      vertex 79.618 128.598 0
    endloop
  endfacet
  facet normal -0.156432 0.987689 0
    outer loop
      vertex 79.618 128.598 0
      vertex 79 128.5 2
      vertex 79.618 128.598 2
    endloop
  endfacet
  facet normal -0.156432 0.987689 0
    outer loop
      vertex 79 128.5 2
      vertex 79.618 128.598 0
      vertex 79 128.5 0
    endloop
  endfacet
  facet normal -0.891007 -0.45399 0
    outer loop
      vertex 80.9021 131.118 0
      vertex 80.618 131.676 2
      vertex 80.618 131.676 0
    endloop
  endfacet
  facet normal -0.891007 -0.45399 0
    outer loop
      vertex 80.618 131.676 2
      vertex 80.9021 131.118 0
      vertex 80.9021 131.118 2
    endloop
  endfacet
  facet normal 0.156432 -0.987689 0
    outer loop
      vertex 78.382 132.402 0
      vertex 79 132.5 2
      vertex 78.382 132.402 2
    endloop
  endfacet
  facet normal 0.156432 -0.987689 0
    outer loop
      vertex 79 132.5 2
      vertex 78.382 132.402 0
      vertex 79 132.5 0
    endloop
  endfacet
  facet normal 0.454004 -0.891 0
    outer loop
      vertex 77.8244 132.118 0
      vertex 78.382 132.402 2
      vertex 77.8244 132.118 2
    endloop
  endfacet
  facet normal 0.454004 -0.891 0
    outer loop
      vertex 78.382 132.402 2
      vertex 77.8244 132.118 0
      vertex 78.382 132.402 0
    endloop
  endfacet
  facet normal 0.987689 -0.156433 0
    outer loop
      vertex 77 130.5 2
      vertex 77.0979 131.118 0
      vertex 77.0979 131.118 2
    endloop
  endfacet
  facet normal 0.987689 -0.156433 0
    outer loop
      vertex 77.0979 131.118 0
      vertex 77 130.5 2
      vertex 77 130.5 0
    endloop
  endfacet
  facet normal 0.891002 0.453999 0
    outer loop
      vertex 77.382 129.324 2
      vertex 77.0979 129.882 0
      vertex 77.0979 129.882 2
    endloop
  endfacet
  facet normal 0.891002 0.453999 0
    outer loop
      vertex 77.0979 129.882 0
      vertex 77.382 129.324 2
      vertex 77.382 129.324 0
    endloop
  endfacet
  facet normal 0.156432 0.987689 -0
    outer loop
      vertex 79 128.5 0
      vertex 78.382 128.598 2
      vertex 79 128.5 2
    endloop
  endfacet
  facet normal 0.156432 0.987689 0
    outer loop
      vertex 78.382 128.598 2
      vertex 79 128.5 0
      vertex 78.382 128.598 0
    endloop
  endfacet
  facet normal -0.707101 -0.707113 0
    outer loop
      vertex 80.1756 132.118 0
      vertex 80.618 131.676 2
      vertex 80.1756 132.118 2
    endloop
  endfacet
  facet normal -0.707101 -0.707113 -0
    outer loop
      vertex 80.618 131.676 2
      vertex 80.1756 132.118 0
      vertex 80.618 131.676 0
    endloop
  endfacet
  facet normal -0.454004 -0.891 0
    outer loop
      vertex 79.618 132.402 0
      vertex 80.1756 132.118 2
      vertex 79.618 132.402 2
    endloop
  endfacet
  facet normal -0.454004 -0.891 -0
    outer loop
      vertex 80.1756 132.118 2
      vertex 79.618 132.402 0
      vertex 80.1756 132.118 0
    endloop
  endfacet
  facet normal 0.707101 -0.707113 0
    outer loop
      vertex 77.382 131.676 0
      vertex 77.8244 132.118 2
      vertex 77.382 131.676 2
    endloop
  endfacet
  facet normal 0.707101 -0.707113 0
    outer loop
      vertex 77.8244 132.118 2
      vertex 77.382 131.676 0
      vertex 77.8244 132.118 0
    endloop
  endfacet
  facet normal 0.891007 -0.45399 0
    outer loop
      vertex 77.0979 131.118 2
      vertex 77.382 131.676 0
      vertex 77.382 131.676 2
    endloop
  endfacet
  facet normal 0.891007 -0.45399 0
    outer loop
      vertex 77.382 131.676 0
      vertex 77.0979 131.118 2
      vertex 77.0979 131.118 0
    endloop
  endfacet
  facet normal -0.707113 0.707101 0
    outer loop
      vertex 80.1756 128.882 0
      vertex 80.618 129.324 2
      vertex 80.618 129.324 0
    endloop
  endfacet
  facet normal -0.707113 0.707101 0
    outer loop
      vertex 80.618 129.324 2
      vertex 80.1756 128.882 0
      vertex 80.1756 128.882 2
    endloop
  endfacet
  facet normal 0.707113 0.707101 0
    outer loop
      vertex 77.8244 128.882 2
      vertex 77.382 129.324 0
      vertex 77.382 129.324 2
    endloop
  endfacet
  facet normal 0.707113 0.707101 0
    outer loop
      vertex 77.382 129.324 0
      vertex 77.8244 128.882 2
      vertex 77.8244 128.882 0
    endloop
  endfacet
  facet normal 0.453985 0.891009 -0
    outer loop
      vertex 78.382 128.598 0
      vertex 77.8244 128.882 2
      vertex 78.382 128.598 2
    endloop
  endfacet
  facet normal 0.453985 0.891009 0
    outer loop
      vertex 77.8244 128.882 2
      vertex 78.382 128.598 0
      vertex 77.8244 128.882 0
    endloop
  endfacet
  facet normal -0.891002 0.453999 0
    outer loop
      vertex 80.618 129.324 0
      vertex 80.9021 129.882 2
      vertex 80.9021 129.882 0
    endloop
  endfacet
  facet normal -0.891002 0.453999 0
    outer loop
      vertex 80.9021 129.882 2
      vertex 80.618 129.324 0
      vertex 80.618 129.324 2
    endloop
  endfacet
  facet normal -0.987689 0.15643 0
    outer loop
      vertex 80.9021 129.882 0
      vertex 81 130.5 2
      vertex 81 130.5 0
    endloop
  endfacet
  facet normal -0.987689 0.15643 0
    outer loop
      vertex 81 130.5 2
      vertex 80.9021 129.882 0
      vertex 80.9021 129.882 2
    endloop
  endfacet
  facet normal 0 0 -1
    outer loop
      vertex 0 124 5
      vertex 1 132 5
      vertex 1 124 5
    endloop
  endfacet
  facet normal -0 0 -1
    outer loop
      vertex 1 132 5
      vertex 0 124 5
      vertex 0 132 5
    endloop
  endfacet
  facet normal 0 -1 0
    outer loop
      vertex 0 132 2
      vertex 1 132 5
      vertex 0 132 5
    endloop
  endfacet
  facet normal 0 -1 -0
    outer loop
      vertex 1 132 5
      vertex 0 132 2
      vertex 1 132 2
    endloop
  endfacet
  facet normal 0 1 -0
    outer loop
      vertex 1 124 2
      vertex 0 124 5
      vertex 1 124 5
    endloop
  endfacet
  facet normal 0 1 0
    outer loop
      vertex 0 124 5
      vertex 1 124 2
      vertex 0 124 2
    endloop
  endfacet
endsolid OpenSCAD_Model
